<?xml version="1.0" encoding="utf-8" standalone="no"?>
<!DOCTYPE svg PUBLIC "-//W3C//DTD SVG 1.1//EN"
  "http://www.w3.org/Graphics/SVG/1.1/DTD/svg11.dtd">
<svg xmlns:xlink="http://www.w3.org/1999/xlink" width="1050.048pt" height="203.717058pt" viewBox="0 0 1050.048 203.717058" xmlns="http://www.w3.org/2000/svg" version="1.1">
 <metadata>
  <rdf:RDF xmlns:dc="http://purl.org/dc/elements/1.1/" xmlns:cc="http://creativecommons.org/ns#" xmlns:rdf="http://www.w3.org/1999/02/22-rdf-syntax-ns#">
   <cc:Work>
    <dc:type rdf:resource="http://purl.org/dc/dcmitype/StillImage"/>
    <dc:date>2026-07-24T14:47:55.455995</dc:date>
    <dc:format>image/svg+xml</dc:format>
    <dc:creator>
     <cc:Agent>
      <dc:title>Matplotlib v3.11.1, https://matplotlib.org/</dc:title>
     </cc:Agent>
    </dc:creator>
   </cc:Work>
  </rdf:RDF>
 </metadata>
 <defs>
  <style type="text/css">*{stroke-linejoin: round; stroke-linecap: butt}</style>
 </defs>
 <g id="figure_1">
  <g id="patch_1">
   <path d="M 0 203.717058 
L 1050.048 203.717058 
L 1050.048 0 
L 0 0 
z
" style="fill: #ffffff"/>
  </g>
  <g id="axes_1">
   <g id="patch_2">
    <path d="M 70.690909 141.726367 
C 82.739964 141.726367 94.297142 136.939227 102.81711 128.419258 
C 111.337078 119.89929 116.124218 108.342112 116.124218 96.293058 
C 116.124218 84.244003 111.337078 72.686825 102.81711 64.166857 
C 94.297142 55.646888 82.739964 50.859748 70.690909 50.859748 
C 58.641855 50.859748 47.084676 55.646888 38.564708 64.166857 
C 30.04474 72.686825 25.2576 84.244003 25.2576 96.293058 
C 25.2576 108.342112 30.04474 119.89929 38.564708 128.419258 
C 47.084676 136.939227 58.641855 141.726367 70.690909 141.726367 
L 70.690909 141.726367 
z
" clip-path="url(#p938deaa406)" style="fill: none; stroke-dasharray: 2.96,1.28; stroke-dashoffset: 0; stroke: #89939d; stroke-width: 0.8; stroke-linejoin: miter"/>
   </g>
   <g id="patch_3">
    <path d="M 36.785455 71.203021 
C 39.123331 71.203021 41.365768 70.274173 43.018897 68.621045 
C 44.672025 66.967917 45.600873 64.725479 45.600873 62.387603 
C 45.600873 60.049727 44.672025 57.807289 43.018897 56.154161 
C 41.365768 54.501033 39.123331 53.572185 36.785455 53.572185 
C 34.447578 53.572185 32.205141 54.501033 30.552013 56.154161 
C 28.898884 57.807289 27.970036 60.049727 27.970036 62.387603 
C 27.970036 64.725479 28.898884 66.967917 30.552013 68.621045 
C 32.205141 70.274173 34.447578 71.203021 36.785455 71.203021 
L 36.785455 71.203021 
z
" clip-path="url(#p938deaa406)" style="fill: none; stroke-dasharray: 0.8,1.32; stroke-dashoffset: 0; stroke: #89939d; stroke-width: 0.8; stroke-linejoin: miter"/>
   </g>
   <g id="patch_4">
    <path d="M 42.210327 69.168694 
C 44.548204 69.168694 46.790641 68.239846 48.443769 66.586718 
C 50.096897 64.93359 51.025745 62.691152 51.025745 60.353276 
C 51.025745 58.015399 50.096897 55.772962 48.443769 54.119834 
C 46.790641 52.466706 44.548204 51.537858 42.210327 51.537858 
C 39.872451 51.537858 37.630013 52.466706 35.976885 54.119834 
C 34.323757 55.772962 33.394909 58.015399 33.394909 60.353276 
C 33.394909 62.691152 34.323757 64.93359 35.976885 66.586718 
C 37.630013 68.239846 39.872451 69.168694 42.210327 69.168694 
z
" clip-path="url(#p938deaa406)" style="fill: #ffffff; stroke: #20252b; stroke-linejoin: miter"/>
   </g>
   <g id="patch_5">
    <path d="M 104.596364 71.203021 
C 106.93424 71.203021 109.176677 70.274173 110.829806 68.621045 
C 112.482934 66.967917 113.411782 64.725479 113.411782 62.387603 
C 113.411782 60.049727 112.482934 57.807289 110.829806 56.154161 
C 109.176677 54.501033 106.93424 53.572185 104.596364 53.572185 
C 102.258487 53.572185 100.01605 54.501033 98.362922 56.154161 
C 96.709794 57.807289 95.780945 60.049727 95.780945 62.387603 
C 95.780945 64.725479 96.709794 66.967917 98.362922 68.621045 
C 100.01605 70.274173 102.258487 71.203021 104.596364 71.203021 
L 104.596364 71.203021 
z
" clip-path="url(#p938deaa406)" style="fill: none; stroke-dasharray: 0.8,1.32; stroke-dashoffset: 0; stroke: #89939d; stroke-width: 0.8; stroke-linejoin: miter"/>
   </g>
   <g id="patch_6">
    <path d="M 102.562036 65.778148 
C 104.899913 65.778148 107.14235 64.8493 108.795478 63.196172 
C 110.448606 61.543044 111.377455 59.300606 111.377455 56.96273 
C 111.377455 54.624854 110.448606 52.382416 108.795478 50.729288 
C 107.14235 49.07616 104.899913 48.147312 102.562036 48.147312 
C 100.22416 48.147312 97.981723 49.07616 96.328594 50.729288 
C 94.675466 52.382416 93.746618 54.624854 93.746618 56.96273 
C 93.746618 59.300606 94.675466 61.543044 96.328594 63.196172 
C 97.981723 64.8493 100.22416 65.778148 102.562036 65.778148 
z
" clip-path="url(#p938deaa406)" style="fill: #ffffff; stroke: #20252b; stroke-linejoin: miter"/>
   </g>
   <g id="patch_7">
    <path d="M 36.785455 139.01393 
C 39.123331 139.01393 41.365768 138.085082 43.018897 136.431954 
C 44.672025 134.778826 45.600873 132.536388 45.600873 130.198512 
C 45.600873 127.860636 44.672025 125.618198 43.018897 123.96507 
C 41.365768 122.311942 39.123331 121.383094 36.785455 121.383094 
C 34.447578 121.383094 32.205141 122.311942 30.552013 123.96507 
C 28.898884 125.618198 27.970036 127.860636 27.970036 130.198512 
C 27.970036 132.536388 28.898884 134.778826 30.552013 136.431954 
C 32.205141 138.085082 34.447578 139.01393 36.785455 139.01393 
L 36.785455 139.01393 
z
" clip-path="url(#p938deaa406)" style="fill: none; stroke-dasharray: 0.8,1.32; stroke-dashoffset: 0; stroke: #89939d; stroke-width: 0.8; stroke-linejoin: miter"/>
   </g>
   <g id="patch_8">
    <path d="M 32.038691 140.370148 
C 34.376567 140.370148 36.619005 139.4413 38.272133 137.788172 
C 39.925261 136.135044 40.854109 133.892606 40.854109 131.55473 
C 40.854109 129.216854 39.925261 126.974416 38.272133 125.321288 
C 36.619005 123.66816 34.376567 122.739312 32.038691 122.739312 
C 29.700815 122.739312 27.458377 123.66816 25.805249 125.321288 
C 24.152121 126.974416 23.223273 129.216854 23.223273 131.55473 
C 23.223273 133.892606 24.152121 136.135044 25.805249 137.788172 
C 27.458377 139.4413 29.700815 140.370148 32.038691 140.370148 
z
" clip-path="url(#p938deaa406)" style="fill: #ffffff; stroke: #20252b; stroke-linejoin: miter"/>
   </g>
   <g id="patch_9">
    <path d="M 104.596364 139.01393 
C 106.93424 139.01393 109.176677 138.085082 110.829806 136.431954 
C 112.482934 134.778826 113.411782 132.536388 113.411782 130.198512 
C 113.411782 127.860636 112.482934 125.618198 110.829806 123.96507 
C 109.176677 122.311942 106.93424 121.383094 104.596364 121.383094 
C 102.258487 121.383094 100.01605 122.311942 98.362922 123.96507 
C 96.709794 125.618198 95.780945 127.860636 95.780945 130.198512 
C 95.780945 132.536388 96.709794 134.778826 98.362922 136.431954 
C 100.01605 138.085082 102.258487 139.01393 104.596364 139.01393 
L 104.596364 139.01393 
z
" clip-path="url(#p938deaa406)" style="fill: none; stroke-dasharray: 0.8,1.32; stroke-dashoffset: 0; stroke: #89939d; stroke-width: 0.8; stroke-linejoin: miter"/>
   </g>
   <g id="patch_10">
    <path d="M 107.3088 143.760694 
C 109.646676 143.760694 111.889114 142.831846 113.542242 141.178718 
C 115.19537 139.52559 116.124218 137.283152 116.124218 134.945276 
C 116.124218 132.607399 115.19537 130.364962 113.542242 128.711834 
C 111.889114 127.058706 109.646676 126.129858 107.3088 126.129858 
C 104.970924 126.129858 102.728486 127.058706 101.075358 128.711834 
C 99.42223 130.364962 98.493382 132.607399 98.493382 134.945276 
C 98.493382 137.283152 99.42223 139.52559 101.075358 141.178718 
C 102.728486 142.831846 104.970924 143.760694 107.3088 143.760694 
z
" clip-path="url(#p938deaa406)" style="fill: #ffffff; stroke: #20252b; stroke-linejoin: miter"/>
   </g>
   <g id="text_1">
    <text style="font-weight: 600; font-size: 9px; font-family: 'DejaVu Sans'; text-anchor: start; fill: #20252b" x="4.236218" y="36.676257" transform="rotate(-0 4.236218 36.676257)">(a)</text>
   </g>
   <g id="patch_11">
    <path d="M 44.081749 59.651492 
Q 46.276952 58.828292 47.215936 58.476172 
" style="fill: none; stroke: #d97706; stroke-width: 1.2; stroke-linecap: round"/>
    <path d="M 43.213129 58.054824 
L 47.215936 58.476172 
L 44.477173 61.425609 
z
" style="fill: #d97706; stroke: #d97706; stroke-width: 1.2; stroke-linecap: round"/>
   </g>
   <g id="text_2">
    <text style="font-size: 7px; font-family: 'DejaVu Sans'; text-anchor: middle; fill: #20252b" x="42.210327" y="62.171635" transform="rotate(-0 42.210327 62.171635)">1</text>
   </g>
   <g id="patch_12">
    <path d="M 101.860253 55.091308 
Q 101.037052 52.896106 100.684933 51.957121 
" style="fill: none; stroke: #d97706; stroke-width: 1.2; stroke-linecap: round"/>
    <path d="M 100.263585 55.959929 
L 100.684933 51.957121 
L 103.63437 54.695884 
z
" style="fill: #d97706; stroke: #d97706; stroke-width: 1.2; stroke-linecap: round"/>
   </g>
   <g id="text_3">
    <text style="font-size: 7px; font-family: 'DejaVu Sans'; text-anchor: middle; fill: #20252b" x="102.562036" y="58.78109" transform="rotate(-0 102.562036 58.78109)">2</text>
   </g>
   <g id="patch_13">
    <path d="M 30.116113 132.104038 
Q 28.477915 132.572095 28.129736 132.671574 
" style="fill: none; stroke: #d97706; stroke-width: 1.2; stroke-linecap: round"/>
    <path d="M 32.08572 133.413321 
L 28.129736 132.671574 
L 31.096724 129.951835 
z
" style="fill: #d97706; stroke: #d97706; stroke-width: 1.2; stroke-linecap: round"/>
   </g>
   <g id="text_4">
    <text style="font-size: 7px; font-family: 'DejaVu Sans'; text-anchor: middle; fill: #20252b" x="32.038691" y="133.37309" transform="rotate(-0 32.038691 133.37309)">3</text>
   </g>
   <g id="patch_14">
    <path d="M 108.300137 136.680116 
Q 109.342188 138.503704 109.718598 139.162422 
" style="fill: none; stroke: #d97706; stroke-width: 1.2; stroke-linecap: round"/>
    <path d="M 109.495336 135.143697 
L 109.718598 139.162422 
L 106.36966 136.929797 
z
" style="fill: #d97706; stroke: #d97706; stroke-width: 1.2; stroke-linecap: round"/>
   </g>
   <g id="text_5">
    <text style="font-size: 7px; font-family: 'DejaVu Sans'; text-anchor: middle; fill: #20252b" x="107.3088" y="136.763635" transform="rotate(-0 107.3088 136.763635)">4</text>
   </g>
   <g id="text_6">
    <!-- $\mathbf{d}\in\mathbb{R}^{8}$ -->
    <g style="fill: #20252b" transform="translate(56.290909 155.838875)">
     <text>
      <tspan x="0" y="-0.60175" style="font-weight: 700; font-size: 9px; font-family: 'DejaVu Sans'; fill: #20252b">d</tspan>
      <tspan x="8.195801" y="-0.60175" style="font-size: 9px; font-family: 'DejaVu Sans'; fill: #20252b">∈</tspan>
      <tspan x="17.789062" y="-0.60175" style="font-style: italic; font-size: 9px; font-family: 'STIXGeneral'; fill: #20252b">ℝ</tspan>
      <tspan x="24.507498" y="-4.31875" style="font-size: 6.3px; font-family: 'DejaVu Sans'; fill: #20252b">8</tspan>
     </text>
    </g>
   </g>
   <g id="text_7">
    <text style="font-weight: 600; font-size: 10px; font-family: 'DejaVu Sans'; fill: #20252b" transform="translate(43.248722 11.479414)">Displaced</text>
    <text style="font-weight: 600; font-size: 10px; font-family: 'DejaVu Sans'; fill: #20252b" transform="translate(40.993253 23.482148)">electrodes</text>
   </g>
  </g>
  <g id="axes_2">
   <g id="line2d_1">
    <path d="M 257.849018 151.898003 
L 246.999273 151.898003 
M 219.874909 142.501848 
L 246.999273 151.898003 
M 230.724655 142.501848 
L 246.999273 151.898003 
M 230.724655 142.501848 
L 219.874909 142.501848 
M 241.5744 142.501848 
L 246.999273 151.898003 
M 241.5744 142.501848 
L 230.724655 142.501848 
M 252.424145 142.501848 
L 246.999273 151.898003 
M 252.424145 142.501848 
L 257.849018 151.898003 
M 252.424145 142.501848 
L 241.5744 142.501848 
M 263.273891 142.501848 
L 257.849018 151.898003 
M 263.273891 142.501848 
L 252.424145 142.501848 
M 274.123636 142.501848 
L 257.849018 151.898003 
M 274.123636 142.501848 
L 263.273891 142.501848 
M 284.973382 142.501848 
L 257.849018 151.898003 
M 284.973382 142.501848 
L 274.123636 142.501848 
M 214.450036 133.105693 
L 219.874909 142.501848 
M 225.299782 133.105693 
L 219.874909 142.501848 
M 225.299782 133.105693 
L 230.724655 142.501848 
M 225.299782 133.105693 
L 214.450036 133.105693 
M 236.149527 133.105693 
L 230.724655 142.501848 
M 236.149527 133.105693 
L 241.5744 142.501848 
M 236.149527 133.105693 
L 225.299782 133.105693 
M 246.999273 133.105693 
L 241.5744 142.501848 
M 246.999273 133.105693 
L 252.424145 142.501848 
M 246.999273 133.105693 
L 236.149527 133.105693 
M 257.849018 133.105693 
L 252.424145 142.501848 
M 257.849018 133.105693 
L 263.273891 142.501848 
M 257.849018 133.105693 
L 246.999273 133.105693 
M 268.698764 133.105693 
L 263.273891 142.501848 
M 268.698764 133.105693 
L 274.123636 142.501848 
M 268.698764 133.105693 
L 257.849018 133.105693 
M 279.548509 133.105693 
L 274.123636 142.501848 
M 279.548509 133.105693 
L 284.973382 142.501848 
M 279.548509 133.105693 
L 268.698764 133.105693 
M 290.398255 133.105693 
L 284.973382 142.501848 
M 290.398255 133.105693 
L 279.548509 133.105693 
M 209.025164 123.709537 
L 214.450036 133.105693 
M 219.874909 123.709537 
L 214.450036 133.105693 
M 219.874909 123.709537 
L 225.299782 133.105693 
M 219.874909 123.709537 
L 209.025164 123.709537 
M 230.724655 123.709537 
L 225.299782 133.105693 
M 230.724655 123.709537 
L 236.149527 133.105693 
M 230.724655 123.709537 
L 219.874909 123.709537 
M 241.5744 123.709537 
L 236.149527 133.105693 
M 241.5744 123.709537 
L 246.999273 133.105693 
M 241.5744 123.709537 
L 230.724655 123.709537 
M 252.424145 123.709537 
L 246.999273 133.105693 
M 252.424145 123.709537 
L 257.849018 133.105693 
M 252.424145 123.709537 
L 241.5744 123.709537 
M 263.273891 123.709537 
L 257.849018 133.105693 
M 263.273891 123.709537 
L 268.698764 133.105693 
M 263.273891 123.709537 
L 252.424145 123.709537 
M 274.123636 123.709537 
L 268.698764 133.105693 
M 274.123636 123.709537 
L 279.548509 133.105693 
M 274.123636 123.709537 
L 263.273891 123.709537 
M 284.973382 123.709537 
L 279.548509 133.105693 
M 284.973382 123.709537 
L 290.398255 133.105693 
M 284.973382 123.709537 
L 274.123636 123.709537 
M 295.823127 123.709537 
L 290.398255 133.105693 
M 295.823127 123.709537 
L 284.973382 123.709537 
M 203.600291 114.313382 
L 209.025164 123.709537 
M 214.450036 114.313382 
L 209.025164 123.709537 
M 214.450036 114.313382 
L 219.874909 123.709537 
M 214.450036 114.313382 
L 203.600291 114.313382 
M 225.299782 114.313382 
L 219.874909 123.709537 
M 225.299782 114.313382 
L 230.724655 123.709537 
M 225.299782 114.313382 
L 214.450036 114.313382 
M 236.149527 114.313382 
L 230.724655 123.709537 
M 236.149527 114.313382 
L 241.5744 123.709537 
M 236.149527 114.313382 
L 225.299782 114.313382 
M 246.999273 114.313382 
L 241.5744 123.709537 
M 246.999273 114.313382 
L 252.424145 123.709537 
M 246.999273 114.313382 
L 236.149527 114.313382 
M 257.849018 114.313382 
L 252.424145 123.709537 
M 257.849018 114.313382 
L 263.273891 123.709537 
M 257.849018 114.313382 
L 246.999273 114.313382 
M 268.698764 114.313382 
L 263.273891 123.709537 
M 268.698764 114.313382 
L 274.123636 123.709537 
M 268.698764 114.313382 
L 257.849018 114.313382 
M 279.548509 114.313382 
L 274.123636 123.709537 
M 279.548509 114.313382 
L 284.973382 123.709537 
M 279.548509 114.313382 
L 268.698764 114.313382 
M 290.398255 114.313382 
L 284.973382 123.709537 
M 290.398255 114.313382 
L 295.823127 123.709537 
M 290.398255 114.313382 
L 279.548509 114.313382 
M 301.248 114.313382 
L 295.823127 123.709537 
M 301.248 114.313382 
L 290.398255 114.313382 
M 198.175418 104.917227 
L 203.600291 114.313382 
M 209.025164 104.917227 
L 203.600291 114.313382 
M 209.025164 104.917227 
L 214.450036 114.313382 
M 209.025164 104.917227 
L 198.175418 104.917227 
M 219.874909 104.917227 
L 214.450036 114.313382 
M 219.874909 104.917227 
L 225.299782 114.313382 
M 219.874909 104.917227 
L 209.025164 104.917227 
M 230.724655 104.917227 
L 225.299782 114.313382 
M 230.724655 104.917227 
L 236.149527 114.313382 
M 230.724655 104.917227 
L 219.874909 104.917227 
M 241.5744 104.917227 
L 236.149527 114.313382 
M 241.5744 104.917227 
L 246.999273 114.313382 
M 241.5744 104.917227 
L 230.724655 104.917227 
M 252.424145 104.917227 
L 246.999273 114.313382 
M 252.424145 104.917227 
L 257.849018 114.313382 
M 252.424145 104.917227 
L 241.5744 104.917227 
M 263.273891 104.917227 
L 257.849018 114.313382 
M 263.273891 104.917227 
L 268.698764 114.313382 
M 263.273891 104.917227 
L 252.424145 104.917227 
M 274.123636 104.917227 
L 268.698764 114.313382 
M 274.123636 104.917227 
L 279.548509 114.313382 
M 274.123636 104.917227 
L 263.273891 104.917227 
M 284.973382 104.917227 
L 279.548509 114.313382 
M 284.973382 104.917227 
L 290.398255 114.313382 
M 284.973382 104.917227 
L 274.123636 104.917227 
M 295.823127 104.917227 
L 290.398255 114.313382 
M 295.823127 104.917227 
L 301.248 114.313382 
M 295.823127 104.917227 
L 284.973382 104.917227 
M 306.672873 104.917227 
L 301.248 114.313382 
M 306.672873 104.917227 
L 295.823127 104.917227 
M 203.600291 95.521072 
L 198.175418 104.917227 
M 203.600291 95.521072 
L 209.025164 104.917227 
M 214.450036 95.521072 
L 209.025164 104.917227 
M 214.450036 95.521072 
L 219.874909 104.917227 
M 214.450036 95.521072 
L 203.600291 95.521072 
M 225.299782 95.521072 
L 219.874909 104.917227 
M 225.299782 95.521072 
L 230.724655 104.917227 
M 225.299782 95.521072 
L 214.450036 95.521072 
M 236.149527 95.521072 
L 230.724655 104.917227 
M 236.149527 95.521072 
L 241.5744 104.917227 
M 236.149527 95.521072 
L 225.299782 95.521072 
M 246.999273 95.521072 
L 241.5744 104.917227 
M 246.999273 95.521072 
L 252.424145 104.917227 
M 246.999273 95.521072 
L 236.149527 95.521072 
M 257.849018 95.521072 
L 252.424145 104.917227 
M 257.849018 95.521072 
L 263.273891 104.917227 
M 257.849018 95.521072 
L 246.999273 95.521072 
M 268.698764 95.521072 
L 263.273891 104.917227 
M 268.698764 95.521072 
L 274.123636 104.917227 
M 268.698764 95.521072 
L 257.849018 95.521072 
M 279.548509 95.521072 
L 274.123636 104.917227 
M 279.548509 95.521072 
L 284.973382 104.917227 
M 279.548509 95.521072 
L 268.698764 95.521072 
M 290.398255 95.521072 
L 284.973382 104.917227 
M 290.398255 95.521072 
L 295.823127 104.917227 
M 290.398255 95.521072 
L 279.548509 95.521072 
M 301.248 95.521072 
L 295.823127 104.917227 
M 301.248 95.521072 
L 306.672873 104.917227 
M 301.248 95.521072 
L 290.398255 95.521072 
M 198.175418 86.124917 
L 198.175418 104.917227 
M 198.175418 86.124917 
L 203.600291 95.521072 
M 209.025164 86.124917 
L 203.600291 95.521072 
M 209.025164 86.124917 
L 214.450036 95.521072 
M 209.025164 86.124917 
L 198.175418 86.124917 
M 219.874909 86.124917 
L 214.450036 95.521072 
M 219.874909 86.124917 
L 225.299782 95.521072 
M 219.874909 86.124917 
L 209.025164 86.124917 
M 230.724655 86.124917 
L 225.299782 95.521072 
M 230.724655 86.124917 
L 236.149527 95.521072 
M 230.724655 86.124917 
L 219.874909 86.124917 
M 241.5744 86.124917 
L 236.149527 95.521072 
M 241.5744 86.124917 
L 246.999273 95.521072 
M 241.5744 86.124917 
L 230.724655 86.124917 
M 252.424145 86.124917 
L 246.999273 95.521072 
M 252.424145 86.124917 
L 257.849018 95.521072 
M 252.424145 86.124917 
L 241.5744 86.124917 
M 263.273891 86.124917 
L 257.849018 95.521072 
M 263.273891 86.124917 
L 268.698764 95.521072 
M 263.273891 86.124917 
L 252.424145 86.124917 
M 274.123636 86.124917 
L 268.698764 95.521072 
M 274.123636 86.124917 
L 279.548509 95.521072 
M 274.123636 86.124917 
L 263.273891 86.124917 
M 284.973382 86.124917 
L 279.548509 95.521072 
M 284.973382 86.124917 
L 290.398255 95.521072 
M 284.973382 86.124917 
L 274.123636 86.124917 
M 295.823127 86.124917 
L 290.398255 95.521072 
M 295.823127 86.124917 
L 301.248 95.521072 
M 295.823127 86.124917 
L 284.973382 86.124917 
M 306.672873 86.124917 
L 306.672873 104.917227 
M 306.672873 86.124917 
L 301.248 95.521072 
M 306.672873 86.124917 
L 295.823127 86.124917 
M 203.600291 76.728761 
L 198.175418 86.124917 
M 203.600291 76.728761 
L 209.025164 86.124917 
M 214.450036 76.728761 
L 209.025164 86.124917 
M 214.450036 76.728761 
L 219.874909 86.124917 
M 214.450036 76.728761 
L 203.600291 76.728761 
M 225.299782 76.728761 
L 219.874909 86.124917 
M 225.299782 76.728761 
L 230.724655 86.124917 
M 225.299782 76.728761 
L 214.450036 76.728761 
M 236.149527 76.728761 
L 230.724655 86.124917 
M 236.149527 76.728761 
L 241.5744 86.124917 
M 236.149527 76.728761 
L 225.299782 76.728761 
M 246.999273 76.728761 
L 241.5744 86.124917 
M 246.999273 76.728761 
L 252.424145 86.124917 
M 246.999273 76.728761 
L 236.149527 76.728761 
M 257.849018 76.728761 
L 252.424145 86.124917 
M 257.849018 76.728761 
L 263.273891 86.124917 
M 257.849018 76.728761 
L 246.999273 76.728761 
M 268.698764 76.728761 
L 263.273891 86.124917 
M 268.698764 76.728761 
L 274.123636 86.124917 
M 268.698764 76.728761 
L 257.849018 76.728761 
M 279.548509 76.728761 
L 274.123636 86.124917 
M 279.548509 76.728761 
L 284.973382 86.124917 
M 279.548509 76.728761 
L 268.698764 76.728761 
M 290.398255 76.728761 
L 284.973382 86.124917 
M 290.398255 76.728761 
L 295.823127 86.124917 
M 290.398255 76.728761 
L 279.548509 76.728761 
M 301.248 76.728761 
L 295.823127 86.124917 
M 301.248 76.728761 
L 306.672873 86.124917 
M 301.248 76.728761 
L 290.398255 76.728761 
M 209.025164 67.332606 
L 203.600291 76.728761 
M 209.025164 67.332606 
L 214.450036 76.728761 
M 219.874909 67.332606 
L 214.450036 76.728761 
M 219.874909 67.332606 
L 225.299782 76.728761 
M 219.874909 67.332606 
L 209.025164 67.332606 
M 230.724655 67.332606 
L 225.299782 76.728761 
M 230.724655 67.332606 
L 236.149527 76.728761 
M 230.724655 67.332606 
L 219.874909 67.332606 
M 241.5744 67.332606 
L 236.149527 76.728761 
M 241.5744 67.332606 
L 246.999273 76.728761 
M 241.5744 67.332606 
L 230.724655 67.332606 
M 252.424145 67.332606 
L 246.999273 76.728761 
M 252.424145 67.332606 
L 257.849018 76.728761 
M 252.424145 67.332606 
L 241.5744 67.332606 
M 263.273891 67.332606 
L 257.849018 76.728761 
M 263.273891 67.332606 
L 268.698764 76.728761 
M 263.273891 67.332606 
L 252.424145 67.332606 
M 274.123636 67.332606 
L 268.698764 76.728761 
M 274.123636 67.332606 
L 279.548509 76.728761 
M 274.123636 67.332606 
L 263.273891 67.332606 
M 284.973382 67.332606 
L 279.548509 76.728761 
M 284.973382 67.332606 
L 290.398255 76.728761 
M 284.973382 67.332606 
L 274.123636 67.332606 
M 295.823127 67.332606 
L 290.398255 76.728761 
M 295.823127 67.332606 
L 301.248 76.728761 
M 295.823127 67.332606 
L 284.973382 67.332606 
M 214.450036 57.936451 
L 209.025164 67.332606 
M 214.450036 57.936451 
L 219.874909 67.332606 
M 225.299782 57.936451 
L 219.874909 67.332606 
M 225.299782 57.936451 
L 230.724655 67.332606 
M 225.299782 57.936451 
L 214.450036 57.936451 
M 236.149527 57.936451 
L 230.724655 67.332606 
M 236.149527 57.936451 
L 241.5744 67.332606 
M 236.149527 57.936451 
L 225.299782 57.936451 
M 246.999273 57.936451 
L 241.5744 67.332606 
M 246.999273 57.936451 
L 252.424145 67.332606 
M 246.999273 57.936451 
L 236.149527 57.936451 
M 257.849018 57.936451 
L 252.424145 67.332606 
M 257.849018 57.936451 
L 263.273891 67.332606 
M 257.849018 57.936451 
L 246.999273 57.936451 
M 268.698764 57.936451 
L 263.273891 67.332606 
M 268.698764 57.936451 
L 274.123636 67.332606 
M 268.698764 57.936451 
L 257.849018 57.936451 
M 279.548509 57.936451 
L 274.123636 67.332606 
M 279.548509 57.936451 
L 284.973382 67.332606 
M 279.548509 57.936451 
L 268.698764 57.936451 
M 290.398255 57.936451 
L 284.973382 67.332606 
M 290.398255 57.936451 
L 295.823127 67.332606 
M 290.398255 57.936451 
L 279.548509 57.936451 
M 230.724655 48.540296 
L 214.450036 57.936451 
M 230.724655 48.540296 
L 225.299782 57.936451 
M 230.724655 48.540296 
L 236.149527 57.936451 
M 241.5744 48.540296 
L 236.149527 57.936451 
M 241.5744 48.540296 
L 246.999273 57.936451 
M 241.5744 48.540296 
L 230.724655 48.540296 
M 252.424145 48.540296 
L 246.999273 57.936451 
M 252.424145 48.540296 
L 257.849018 57.936451 
M 252.424145 48.540296 
L 241.5744 48.540296 
M 263.273891 48.540296 
L 257.849018 57.936451 
M 263.273891 48.540296 
L 268.698764 57.936451 
M 263.273891 48.540296 
L 252.424145 48.540296 
M 274.123636 48.540296 
L 268.698764 57.936451 
M 274.123636 48.540296 
L 279.548509 57.936451 
M 274.123636 48.540296 
L 290.398255 57.936451 
M 274.123636 48.540296 
L 263.273891 48.540296 
L 263.273891 48.540296 
" clip-path="url(#p356530f58f)" style="fill: none; stroke: #89939d; stroke-width: 0.32; stroke-linecap: square"/>
   </g>
   <g id="patch_15">
    <path d="M 252.424145 153.254221 
C 267.530423 153.254221 282.020019 147.252434 292.701771 136.570683 
C 303.383522 125.888932 309.385309 111.399335 309.385309 96.293058 
C 309.385309 81.18678 303.383522 66.697183 292.701771 56.015432 
C 282.020019 45.333681 267.530423 39.331894 252.424145 39.331894 
C 237.317868 39.331894 222.828271 45.333681 212.14652 56.015432 
C 201.464769 66.697183 195.462982 81.18678 195.462982 96.293058 
C 195.462982 111.399335 201.464769 125.888932 212.14652 136.570683 
C 222.828271 147.252434 237.317868 153.254221 252.424145 153.254221 
L 252.424145 153.254221 
z
" clip-path="url(#p356530f58f)" style="fill: none; stroke: #20252b; stroke-linejoin: miter"/>
   </g>
   <g id="patch_16">
    <path d="M 219.874909 73.915458 
C 222.572459 73.915458 225.159887 72.84371 227.067342 70.936254 
C 228.974798 69.028799 230.046545 66.441371 230.046545 63.743821 
C 230.046545 61.046272 228.974798 58.458844 227.067342 56.551388 
C 225.159887 54.643933 222.572459 53.572185 219.874909 53.572185 
C 217.17736 53.572185 214.589932 54.643933 212.682476 56.551388 
C 210.775021 58.458844 209.703273 61.046272 209.703273 63.743821 
C 209.703273 66.441371 210.775021 69.028799 212.682476 70.936254 
C 214.589932 72.84371 217.17736 73.915458 219.874909 73.915458 
z
" clip-path="url(#p356530f58f)" style="fill: #ffffff; stroke: #20252b; stroke-width: 0.9; stroke-linejoin: miter"/>
   </g>
   <g id="patch_17">
    <path d="M 284.973382 73.915458 
C 287.670931 73.915458 290.258359 72.84371 292.165815 70.936254 
C 294.07327 69.028799 295.145018 66.441371 295.145018 63.743821 
C 295.145018 61.046272 294.07327 58.458844 292.165815 56.551388 
C 290.258359 54.643933 287.670931 53.572185 284.973382 53.572185 
C 282.275832 53.572185 279.688404 54.643933 277.780949 56.551388 
C 275.873493 58.458844 274.801745 61.046272 274.801745 63.743821 
C 274.801745 66.441371 275.873493 69.028799 277.780949 70.936254 
C 279.688404 72.84371 282.275832 73.915458 284.973382 73.915458 
z
" clip-path="url(#p356530f58f)" style="fill: #ffffff; stroke: #20252b; stroke-width: 0.9; stroke-linejoin: miter"/>
   </g>
   <g id="patch_18">
    <path d="M 219.874909 139.01393 
C 222.572459 139.01393 225.159887 137.942182 227.067342 136.034727 
C 228.974798 134.127271 230.046545 131.539843 230.046545 128.842294 
C 230.046545 126.144744 228.974798 123.557316 227.067342 121.649861 
C 225.159887 119.742405 222.572459 118.670658 219.874909 118.670658 
C 217.17736 118.670658 214.589932 119.742405 212.682476 121.649861 
C 210.775021 123.557316 209.703273 126.144744 209.703273 128.842294 
C 209.703273 131.539843 210.775021 134.127271 212.682476 136.034727 
C 214.589932 137.942182 217.17736 139.01393 219.874909 139.01393 
z
" clip-path="url(#p356530f58f)" style="fill: #ffffff; stroke: #20252b; stroke-width: 0.9; stroke-linejoin: miter"/>
   </g>
   <g id="patch_19">
    <path d="M 284.973382 139.01393 
C 287.670931 139.01393 290.258359 137.942182 292.165815 136.034727 
C 294.07327 134.127271 295.145018 131.539843 295.145018 128.842294 
C 295.145018 126.144744 294.07327 123.557316 292.165815 121.649861 
C 290.258359 119.742405 287.670931 118.670658 284.973382 118.670658 
C 282.275832 118.670658 279.688404 119.742405 277.780949 121.649861 
C 275.873493 123.557316 274.801745 126.144744 274.801745 128.842294 
C 274.801745 131.539843 275.873493 134.127271 277.780949 136.034727 
C 279.688404 137.942182 282.275832 139.01393 284.973382 139.01393 
z
" clip-path="url(#p356530f58f)" style="fill: #ffffff; stroke: #20252b; stroke-width: 0.9; stroke-linejoin: miter"/>
   </g>
   <g id="line2d_2"/>
   <g id="text_8">
    <text style="font-weight: 600; font-size: 9px; font-family: 'DejaVu Sans'; text-anchor: start; fill: #20252b" x="185.969455" y="36.67696" transform="rotate(-0 185.969455 36.67696)">(b)</text>
   </g>
   <g id="text_9">
    <!-- $\nabla^2\phi=0,\quad \mathbf{E}=-\nabla\phi$ -->
    <g style="fill: #20252b" transform="translate(215.464145 159.469655)">
     <text>
      <tspan x="0" y="-0.53975" style="font-size: 8px; font-family: 'DejaVu Sans'; fill: #20252b">∇</tspan>
      <tspan x="16.045703" y="-0.53975" style="font-size: 8px; font-family: 'DejaVu Sans'; fill: #20252b">=</tspan>
      <tspan x="24.307422" y="-0.53975" style="font-size: 8px; font-family: 'DejaVu Sans'; fill: #20252b">0</tspan>
      <tspan x="29.397266" y="-0.53975" style="font-size: 8px; font-family: 'DejaVu Sans'; fill: #20252b">,</tspan>
      <tspan x="48.315234" y="-0.53975" style="font-size: 8px; font-family: 'DejaVu Sans'; fill: #20252b">=</tspan>
      <tspan x="56.576953" y="-0.53975" style="font-size: 8px; font-family: 'DejaVu Sans'; fill: #20252b">−</tspan>
      <tspan x="63.280078" y="-0.53975" style="font-size: 8px; font-family: 'DejaVu Sans'; fill: #20252b">∇</tspan>
      <tspan x="5.428125" y="-3.84375" style="font-size: 5.6px; font-family: 'DejaVu Sans'; fill: #20252b">2</tspan>
      <tspan x="9.209766" y="-0.53975" style="font-style: oblique; font-size: 8px; font-family: 'DejaVu Sans'; fill: #20252b">ϕ</tspan>
      <tspan x="68.631641" y="-0.53975" style="font-style: oblique; font-size: 8px; font-family: 'DejaVu Sans'; fill: #20252b">ϕ</tspan>
      <tspan x="41.291797" y="-0.53975" style="font-weight: 700; font-size: 8px; font-family: 'DejaVu Sans'; fill: #20252b">E</tspan>
     </text>
    </g>
   </g>
   <g id="text_10">
    <text style="font-weight: 600; font-size: 10px; font-family: 'DejaVu Sans'; fill: #20252b" transform="translate(215.724145 11.479414)">Forward FEM</text>
    <text style="font-weight: 600; font-size: 10px; font-family: 'DejaVu Sans'; fill: #20252b" transform="translate(235.094458 23.482148)">model</text>
   </g>
  </g>
  <g id="axes_3">
   <g id="patch_20">
    <path d="M 434.157382 89.511967 
C 440.991174 89.511967 447.545992 86.796872 452.378212 81.964652 
C 457.210433 77.132431 459.925527 70.577613 459.925527 63.743821 
C 459.925527 56.910029 457.210433 50.355211 452.378212 45.522991 
C 447.545992 40.69077 440.991174 37.975676 434.157382 37.975676 
C 427.32359 37.975676 420.768772 40.69077 415.936551 45.522991 
C 411.104331 50.355211 408.389236 56.910029 408.389236 63.743821 
C 408.389236 70.577613 411.104331 77.132431 415.936551 81.964652 
C 420.768772 86.796872 427.32359 89.511967 434.157382 89.511967 
L 434.157382 89.511967 
z
" clip-path="url(#p503d99edf7)" style="fill: none; opacity: 0.35; stroke: #2f6b8a; stroke-width: 0.75; stroke-linejoin: miter"/>
   </g>
   <g id="patch_21">
    <path d="M 403.642473 140.370148 
C 410.476265 140.370148 417.031082 137.655054 421.863303 132.822833 
C 426.695524 127.990613 429.410618 121.435795 429.410618 114.602003 
C 429.410618 107.768211 426.695524 101.213393 421.863303 96.381173 
C 417.031082 91.548952 410.476265 88.833858 403.642473 88.833858 
C 396.808681 88.833858 390.253863 91.548952 385.421642 96.381173 
C 380.589422 101.213393 377.874327 107.768211 377.874327 114.602003 
C 377.874327 121.435795 380.589422 127.990613 385.421642 132.822833 
C 390.253863 137.655054 396.808681 140.370148 403.642473 140.370148 
L 403.642473 140.370148 
z
" clip-path="url(#p503d99edf7)" style="fill: none; opacity: 0.35; stroke: #2f6b8a; stroke-width: 0.75; stroke-linejoin: miter"/>
   </g>
   <g id="patch_22">
    <path d="M 464.672291 140.370148 
C 471.506083 140.370148 478.060901 137.655054 482.893121 132.822833 
C 487.725342 127.990613 490.440436 121.435795 490.440436 114.602003 
C 490.440436 107.768211 487.725342 101.213393 482.893121 96.381173 
C 478.060901 91.548952 471.506083 88.833858 464.672291 88.833858 
C 457.838499 88.833858 451.283681 91.548952 446.451461 96.381173 
C 441.61924 101.213393 438.904145 107.768211 438.904145 114.602003 
C 438.904145 121.435795 441.61924 127.990613 446.451461 132.822833 
C 451.283681 137.655054 457.838499 140.370148 464.672291 140.370148 
L 464.672291 140.370148 
z
" clip-path="url(#p503d99edf7)" style="fill: none; opacity: 0.35; stroke: #2f6b8a; stroke-width: 0.75; stroke-linejoin: miter"/>
   </g>
   <g id="patch_23">
    <path d="M 434.157382 82.052767 
C 439.012971 82.052767 443.670341 80.123621 447.103761 76.690201 
C 450.537181 73.256781 452.466327 68.59941 452.466327 63.743821 
C 452.466327 58.888232 450.537181 54.230862 447.103761 50.797442 
C 443.670341 47.364022 439.012971 45.434876 434.157382 45.434876 
C 429.301793 45.434876 424.644422 47.364022 421.211002 50.797442 
C 417.777582 54.230862 415.848436 58.888232 415.848436 63.743821 
C 415.848436 68.59941 417.777582 73.256781 421.211002 76.690201 
C 424.644422 80.123621 429.301793 82.052767 434.157382 82.052767 
L 434.157382 82.052767 
z
" clip-path="url(#p503d99edf7)" style="fill: none; opacity: 0.5; stroke: #2f6b8a; stroke-width: 0.75; stroke-linejoin: miter"/>
   </g>
   <g id="patch_24">
    <path d="M 403.642473 132.910948 
C 408.498062 132.910948 413.155432 130.981802 416.588852 127.548382 
C 420.022272 124.114962 421.951418 119.457592 421.951418 114.602003 
C 421.951418 109.746414 420.022272 105.089043 416.588852 101.655623 
C 413.155432 98.222204 408.498062 96.293058 403.642473 96.293058 
C 398.786884 96.293058 394.129513 98.222204 390.696093 101.655623 
C 387.262673 105.089043 385.333527 109.746414 385.333527 114.602003 
C 385.333527 119.457592 387.262673 124.114962 390.696093 127.548382 
C 394.129513 130.981802 398.786884 132.910948 403.642473 132.910948 
L 403.642473 132.910948 
z
" clip-path="url(#p503d99edf7)" style="fill: none; opacity: 0.5; stroke: #2f6b8a; stroke-width: 0.75; stroke-linejoin: miter"/>
   </g>
   <g id="patch_25">
    <path d="M 464.672291 132.910948 
C 469.52788 132.910948 474.18525 130.981802 477.61867 127.548382 
C 481.05209 124.114962 482.981236 119.457592 482.981236 114.602003 
C 482.981236 109.746414 481.05209 105.089043 477.61867 101.655623 
C 474.18525 98.222204 469.52788 96.293058 464.672291 96.293058 
C 459.816702 96.293058 455.159331 98.222204 451.725911 101.655623 
C 448.292491 105.089043 446.363345 109.746414 446.363345 114.602003 
C 446.363345 119.457592 448.292491 124.114962 451.725911 127.548382 
C 455.159331 130.981802 459.816702 132.910948 464.672291 132.910948 
L 464.672291 132.910948 
z
" clip-path="url(#p503d99edf7)" style="fill: none; opacity: 0.5; stroke: #2f6b8a; stroke-width: 0.75; stroke-linejoin: miter"/>
   </g>
   <g id="patch_26">
    <path d="M 434.157382 74.593567 
C 437.034768 74.593567 439.794691 73.450369 441.82931 71.41575 
C 443.86393 69.381131 445.007127 66.621207 445.007127 63.743821 
C 445.007127 60.866435 443.86393 58.106512 441.82931 56.071893 
C 439.794691 54.037273 437.034768 52.894076 434.157382 52.894076 
C 431.279996 52.894076 428.520072 54.037273 426.485453 56.071893 
C 424.450834 58.106512 423.307636 60.866435 423.307636 63.743821 
C 423.307636 66.621207 424.450834 69.381131 426.485453 71.41575 
C 428.520072 73.450369 431.279996 74.593567 434.157382 74.593567 
L 434.157382 74.593567 
z
" clip-path="url(#p503d99edf7)" style="fill: none; opacity: 0.75; stroke: #2f6b8a; stroke-width: 0.75; stroke-linejoin: miter"/>
   </g>
   <g id="patch_27">
    <path d="M 403.642473 125.451748 
C 406.519859 125.451748 409.279782 124.308551 411.314401 122.273932 
C 413.349021 120.239312 414.492218 117.479389 414.492218 114.602003 
C 414.492218 111.724617 413.349021 108.964694 411.314401 106.930074 
C 409.279782 104.895455 406.519859 103.752258 403.642473 103.752258 
C 400.765087 103.752258 398.005163 104.895455 395.970544 106.930074 
C 393.935925 108.964694 392.792727 111.724617 392.792727 114.602003 
C 392.792727 117.479389 393.935925 120.239312 395.970544 122.273932 
C 398.005163 124.308551 400.765087 125.451748 403.642473 125.451748 
L 403.642473 125.451748 
z
" clip-path="url(#p503d99edf7)" style="fill: none; opacity: 0.75; stroke: #2f6b8a; stroke-width: 0.75; stroke-linejoin: miter"/>
   </g>
   <g id="patch_28">
    <path d="M 464.672291 125.451748 
C 467.549677 125.451748 470.3096 124.308551 472.344219 122.273932 
C 474.378839 120.239312 475.522036 117.479389 475.522036 114.602003 
C 475.522036 111.724617 474.378839 108.964694 472.344219 106.930074 
C 470.3096 104.895455 467.549677 103.752258 464.672291 103.752258 
C 461.794905 103.752258 459.034982 104.895455 457.000362 106.930074 
C 454.965743 108.964694 453.822545 111.724617 453.822545 114.602003 
C 453.822545 117.479389 454.965743 120.239312 457.000362 122.273932 
C 459.034982 124.308551 461.794905 125.451748 464.672291 125.451748 
L 464.672291 125.451748 
z
" clip-path="url(#p503d99edf7)" style="fill: none; opacity: 0.75; stroke: #2f6b8a; stroke-width: 0.75; stroke-linejoin: miter"/>
   </g>
   <g id="text_11">
    <text style="font-weight: 600; font-size: 9px; font-family: 'DejaVu Sans'; text-anchor: start; fill: #20252b" x="367.702691" y="36.676257" transform="rotate(-0 367.702691 36.676257)">(c)</text>
   </g>
   <g id="text_12">
    <!-- $\Psi\propto|\mathbf{E}|^2$ -->
    <g style="fill: #20252b" transform="translate(417.327382 157.873203)">
     <text>
      <tspan x="0" y="-0.60175" style="font-size: 9px; font-family: 'DejaVu Sans'; fill: #20252b">Ψ</tspan>
      <tspan x="8.837402" y="-0.60175" style="font-size: 9px; font-family: 'DejaVu Sans'; fill: #20252b">∝</tspan>
      <tspan x="17.02002" y="-0.60175" style="font-size: 9px; font-family: 'DejaVu Sans'; fill: #20252b">|</tspan>
      <tspan x="26.200195" y="-0.60175" style="font-size: 9px; font-family: 'DejaVu Sans'; fill: #20252b">|</tspan>
      <tspan x="20.052246" y="-0.60175" style="font-weight: 700; font-size: 9px; font-family: 'DejaVu Sans'; fill: #20252b">E</tspan>
      <tspan x="29.318555" y="-4.31875" style="font-size: 6.3px; font-family: 'DejaVu Sans'; fill: #20252b">2</tspan>
     </text>
    </g>
   </g>
   <g id="text_13">
    <text style="font-weight: 600; font-size: 10px; font-family: 'DejaVu Sans'; fill: #20252b" transform="translate(395.415976 11.479414)">Three minima</text>
    <text style="font-weight: 600; font-size: 10px; font-family: 'DejaVu Sans'; fill: #20252b" transform="translate(405.248788 23.482148)">extraction</text>
   </g>
   <g id="PathCollection_1">
    <defs>
     <path id="mea329f8788" d="M 0 2.915476 
C 0.773193 2.915476 1.514823 2.608283 2.061553 2.061553 
C 2.608283 1.514823 2.915476 0.773193 2.915476 0 
C 2.915476 -0.773193 2.608283 -1.514823 2.061553 -2.061553 
C 1.514823 -2.608283 0.773193 -2.915476 0 -2.915476 
C -0.773193 -2.915476 -1.514823 -2.608283 -2.061553 -2.061553 
C -2.608283 -1.514823 -2.915476 -0.773193 -2.915476 0 
C -2.915476 0.773193 -2.608283 1.514823 -2.061553 2.061553 
C -1.514823 2.608283 -0.773193 2.915476 0 2.915476 
z
" style="stroke: #20252b; stroke-width: 0.6"/>
    </defs>
    <g clip-path="url(#p503d99edf7)">
     <use xlink:href="#mea329f8788" x="434.157382" y="63.743821" style="fill: #c63d4f; stroke: #20252b; stroke-width: 0.6"/>
     <use xlink:href="#mea329f8788" x="403.642473" y="114.602003" style="fill: #c63d4f; stroke: #20252b; stroke-width: 0.6"/>
     <use xlink:href="#mea329f8788" x="464.672291" y="114.602003" style="fill: #c63d4f; stroke: #20252b; stroke-width: 0.6"/>
    </g>
   </g>
  </g>
  <g id="axes_4">
   <g id="patch_29">
    <path d="M 560.285673 142.404476 
L 671.495564 142.404476 
Q 674.208 142.404476 674.208 139.692039 
L 674.208 51.537858 
Q 674.208 48.825421 671.495564 48.825421 
L 560.285673 48.825421 
Q 557.573236 48.825421 557.573236 51.537858 
L 557.573236 139.692039 
Q 557.573236 142.404476 560.285673 142.404476 
z
" clip-path="url(#pb4329e9092)" style="fill: #ffffff; stroke: #20252b; stroke-width: 0.9; stroke-linejoin: miter"/>
   </g>
   <g id="patch_30">
    <path d="M 568.422982 72.559239 
L 609.787636 72.559239 
L 609.787636 60.353276 
L 568.422982 60.353276 
z
" clip-path="url(#pb4329e9092)" style="fill: #dceaf1; stroke: #20252b; stroke-width: 0.6; stroke-linejoin: miter"/>
   </g>
   <g id="patch_31">
    <path d="M 621.9936 72.559239 
L 663.358255 72.559239 
L 663.358255 60.353276 
L 621.9936 60.353276 
z
" clip-path="url(#pb4329e9092)" style="fill: #f8e7d0; stroke: #20252b; stroke-width: 0.6; stroke-linejoin: miter"/>
   </g>
   <g id="line2d_3">
    <path d="M 568.422982 82.730876 
L 609.787636 82.730876 
" clip-path="url(#pb4329e9092)" style="fill: none; stroke: #89939d; stroke-width: 3"/>
   </g>
   <g id="line2d_4">
    <path d="M 621.9936 82.730876 
L 663.358255 82.730876 
" clip-path="url(#pb4329e9092)" style="fill: none; stroke: #89939d; stroke-width: 3"/>
   </g>
   <g id="line2d_5">
    <path d="M 568.422982 95.614948 
L 609.787636 95.614948 
" clip-path="url(#pb4329e9092)" style="fill: none; stroke: #89939d; stroke-width: 3"/>
   </g>
   <g id="line2d_6">
    <path d="M 621.9936 95.614948 
L 663.358255 95.614948 
" clip-path="url(#pb4329e9092)" style="fill: none; stroke: #89939d; stroke-width: 3"/>
   </g>
   <g id="line2d_7">
    <path d="M 568.422982 108.499021 
L 609.787636 108.499021 
" clip-path="url(#pb4329e9092)" style="fill: none; stroke: #89939d; stroke-width: 3"/>
   </g>
   <g id="line2d_8">
    <path d="M 621.9936 108.499021 
L 663.358255 108.499021 
" clip-path="url(#pb4329e9092)" style="fill: none; stroke: #89939d; stroke-width: 3"/>
   </g>
   <g id="line2d_9">
    <path d="M 568.422982 121.383094 
L 609.787636 121.383094 
" clip-path="url(#pb4329e9092)" style="fill: none; stroke: #89939d; stroke-width: 3"/>
   </g>
   <g id="line2d_10">
    <path d="M 621.9936 121.383094 
L 663.358255 121.383094 
" clip-path="url(#pb4329e9092)" style="fill: none; stroke: #89939d; stroke-width: 3"/>
   </g>
   <g id="text_14">
    <text style="font-weight: 600; font-size: 9px; font-family: 'DejaVu Sans'; text-anchor: start; fill: #20252b" x="549.435927" y="36.67696" transform="rotate(-0 549.435927 36.67696)">(d)</text>
   </g>
   <g id="text_15">
    <text style="font-size: 7px; font-family: 'DejaVu Sans'; text-anchor: middle" x="588.766255" y="68.27489" transform="rotate(-0 588.766255 68.27489)">X: 6 minima</text>
   </g>
   <g id="text_16">
    <text style="font-size: 7px; font-family: 'DejaVu Sans'; text-anchor: middle" x="643.014982" y="68.27489" transform="rotate(-0 643.014982 68.27489)">Y: 8 shifts</text>
   </g>
   <g id="text_17">
    <text style="font-size: 8px; font-family: 'DejaVu Sans'; text-anchor: middle; fill: #20252b" x="615.890618" y="156.757219" transform="rotate(-0 615.890618 156.757219)">Clean FEM samples</text>
   </g>
   <g id="text_18">
    <text style="font-weight: 600; font-size: 10px; font-family: 'DejaVu Sans'; fill: #20252b" transform="translate(584.374993 11.479414)">Supervised</text>
    <text style="font-weight: 600; font-size: 10px; font-family: 'DejaVu Sans'; fill: #20252b" transform="translate(594.416399 23.482148)">dataset</text>
   </g>
  </g>
  <g id="axes_5">
   <g id="line2d_11">
    <path d="M 748.8 135.623385 
L 781.349236 135.623385 
" clip-path="url(#p0d802d8ea8)" style="fill: none; stroke: #d9dee3; stroke-width: 0.35; stroke-linecap: square"/>
   </g>
   <g id="line2d_12">
    <path d="M 748.8 135.623385 
L 781.349236 109.403167 
" clip-path="url(#p0d802d8ea8)" style="fill: none; stroke: #d9dee3; stroke-width: 0.35; stroke-linecap: square"/>
   </g>
   <g id="line2d_13">
    <path d="M 748.8 135.623385 
L 781.349236 83.182948 
" clip-path="url(#p0d802d8ea8)" style="fill: none; stroke: #d9dee3; stroke-width: 0.35; stroke-linecap: square"/>
   </g>
   <g id="line2d_14">
    <path d="M 748.8 135.623385 
L 781.349236 56.96273 
" clip-path="url(#p0d802d8ea8)" style="fill: none; stroke: #d9dee3; stroke-width: 0.35; stroke-linecap: square"/>
   </g>
   <g id="line2d_15">
    <path d="M 748.8 115.958221 
L 781.349236 135.623385 
" clip-path="url(#p0d802d8ea8)" style="fill: none; stroke: #d9dee3; stroke-width: 0.35; stroke-linecap: square"/>
   </g>
   <g id="line2d_16">
    <path d="M 748.8 115.958221 
L 781.349236 109.403167 
" clip-path="url(#p0d802d8ea8)" style="fill: none; stroke: #d9dee3; stroke-width: 0.35; stroke-linecap: square"/>
   </g>
   <g id="line2d_17">
    <path d="M 748.8 115.958221 
L 781.349236 83.182948 
" clip-path="url(#p0d802d8ea8)" style="fill: none; stroke: #d9dee3; stroke-width: 0.35; stroke-linecap: square"/>
   </g>
   <g id="line2d_18">
    <path d="M 748.8 115.958221 
L 781.349236 56.96273 
" clip-path="url(#p0d802d8ea8)" style="fill: none; stroke: #d9dee3; stroke-width: 0.35; stroke-linecap: square"/>
   </g>
   <g id="line2d_19">
    <path d="M 748.8 96.293058 
L 781.349236 135.623385 
" clip-path="url(#p0d802d8ea8)" style="fill: none; stroke: #d9dee3; stroke-width: 0.35; stroke-linecap: square"/>
   </g>
   <g id="line2d_20">
    <path d="M 748.8 96.293058 
L 781.349236 109.403167 
" clip-path="url(#p0d802d8ea8)" style="fill: none; stroke: #d9dee3; stroke-width: 0.35; stroke-linecap: square"/>
   </g>
   <g id="line2d_21">
    <path d="M 748.8 96.293058 
L 781.349236 83.182948 
" clip-path="url(#p0d802d8ea8)" style="fill: none; stroke: #d9dee3; stroke-width: 0.35; stroke-linecap: square"/>
   </g>
   <g id="line2d_22">
    <path d="M 748.8 96.293058 
L 781.349236 56.96273 
" clip-path="url(#p0d802d8ea8)" style="fill: none; stroke: #d9dee3; stroke-width: 0.35; stroke-linecap: square"/>
   </g>
   <g id="line2d_23">
    <path d="M 748.8 76.627894 
L 781.349236 135.623385 
" clip-path="url(#p0d802d8ea8)" style="fill: none; stroke: #d9dee3; stroke-width: 0.35; stroke-linecap: square"/>
   </g>
   <g id="line2d_24">
    <path d="M 748.8 76.627894 
L 781.349236 109.403167 
" clip-path="url(#p0d802d8ea8)" style="fill: none; stroke: #d9dee3; stroke-width: 0.35; stroke-linecap: square"/>
   </g>
   <g id="line2d_25">
    <path d="M 748.8 76.627894 
L 781.349236 83.182948 
" clip-path="url(#p0d802d8ea8)" style="fill: none; stroke: #d9dee3; stroke-width: 0.35; stroke-linecap: square"/>
   </g>
   <g id="line2d_26">
    <path d="M 748.8 76.627894 
L 781.349236 56.96273 
" clip-path="url(#p0d802d8ea8)" style="fill: none; stroke: #d9dee3; stroke-width: 0.35; stroke-linecap: square"/>
   </g>
   <g id="line2d_27">
    <path d="M 748.8 56.96273 
L 781.349236 135.623385 
" clip-path="url(#p0d802d8ea8)" style="fill: none; stroke: #d9dee3; stroke-width: 0.35; stroke-linecap: square"/>
   </g>
   <g id="line2d_28">
    <path d="M 748.8 56.96273 
L 781.349236 109.403167 
" clip-path="url(#p0d802d8ea8)" style="fill: none; stroke: #d9dee3; stroke-width: 0.35; stroke-linecap: square"/>
   </g>
   <g id="line2d_29">
    <path d="M 748.8 56.96273 
L 781.349236 83.182948 
" clip-path="url(#p0d802d8ea8)" style="fill: none; stroke: #d9dee3; stroke-width: 0.35; stroke-linecap: square"/>
   </g>
   <g id="line2d_30">
    <path d="M 748.8 56.96273 
L 781.349236 56.96273 
" clip-path="url(#p0d802d8ea8)" style="fill: none; stroke: #d9dee3; stroke-width: 0.35; stroke-linecap: square"/>
   </g>
   <g id="line2d_31">
    <path d="M 781.349236 135.623385 
L 813.898473 135.623385 
" clip-path="url(#p0d802d8ea8)" style="fill: none; stroke: #d9dee3; stroke-width: 0.35; stroke-linecap: square"/>
   </g>
   <g id="line2d_32">
    <path d="M 781.349236 135.623385 
L 813.898473 109.403167 
" clip-path="url(#p0d802d8ea8)" style="fill: none; stroke: #d9dee3; stroke-width: 0.35; stroke-linecap: square"/>
   </g>
   <g id="line2d_33">
    <path d="M 781.349236 135.623385 
L 813.898473 83.182948 
" clip-path="url(#p0d802d8ea8)" style="fill: none; stroke: #d9dee3; stroke-width: 0.35; stroke-linecap: square"/>
   </g>
   <g id="line2d_34">
    <path d="M 781.349236 135.623385 
L 813.898473 56.96273 
" clip-path="url(#p0d802d8ea8)" style="fill: none; stroke: #d9dee3; stroke-width: 0.35; stroke-linecap: square"/>
   </g>
   <g id="line2d_35">
    <path d="M 781.349236 109.403167 
L 813.898473 135.623385 
" clip-path="url(#p0d802d8ea8)" style="fill: none; stroke: #d9dee3; stroke-width: 0.35; stroke-linecap: square"/>
   </g>
   <g id="line2d_36">
    <path d="M 781.349236 109.403167 
L 813.898473 109.403167 
" clip-path="url(#p0d802d8ea8)" style="fill: none; stroke: #d9dee3; stroke-width: 0.35; stroke-linecap: square"/>
   </g>
   <g id="line2d_37">
    <path d="M 781.349236 109.403167 
L 813.898473 83.182948 
" clip-path="url(#p0d802d8ea8)" style="fill: none; stroke: #d9dee3; stroke-width: 0.35; stroke-linecap: square"/>
   </g>
   <g id="line2d_38">
    <path d="M 781.349236 109.403167 
L 813.898473 56.96273 
" clip-path="url(#p0d802d8ea8)" style="fill: none; stroke: #d9dee3; stroke-width: 0.35; stroke-linecap: square"/>
   </g>
   <g id="line2d_39">
    <path d="M 781.349236 83.182948 
L 813.898473 135.623385 
" clip-path="url(#p0d802d8ea8)" style="fill: none; stroke: #d9dee3; stroke-width: 0.35; stroke-linecap: square"/>
   </g>
   <g id="line2d_40">
    <path d="M 781.349236 83.182948 
L 813.898473 109.403167 
" clip-path="url(#p0d802d8ea8)" style="fill: none; stroke: #d9dee3; stroke-width: 0.35; stroke-linecap: square"/>
   </g>
   <g id="line2d_41">
    <path d="M 781.349236 83.182948 
L 813.898473 83.182948 
" clip-path="url(#p0d802d8ea8)" style="fill: none; stroke: #d9dee3; stroke-width: 0.35; stroke-linecap: square"/>
   </g>
   <g id="line2d_42">
    <path d="M 781.349236 83.182948 
L 813.898473 56.96273 
" clip-path="url(#p0d802d8ea8)" style="fill: none; stroke: #d9dee3; stroke-width: 0.35; stroke-linecap: square"/>
   </g>
   <g id="line2d_43">
    <path d="M 781.349236 56.96273 
L 813.898473 135.623385 
" clip-path="url(#p0d802d8ea8)" style="fill: none; stroke: #d9dee3; stroke-width: 0.35; stroke-linecap: square"/>
   </g>
   <g id="line2d_44">
    <path d="M 781.349236 56.96273 
L 813.898473 109.403167 
" clip-path="url(#p0d802d8ea8)" style="fill: none; stroke: #d9dee3; stroke-width: 0.35; stroke-linecap: square"/>
   </g>
   <g id="line2d_45">
    <path d="M 781.349236 56.96273 
L 813.898473 83.182948 
" clip-path="url(#p0d802d8ea8)" style="fill: none; stroke: #d9dee3; stroke-width: 0.35; stroke-linecap: square"/>
   </g>
   <g id="line2d_46">
    <path d="M 781.349236 56.96273 
L 813.898473 56.96273 
" clip-path="url(#p0d802d8ea8)" style="fill: none; stroke: #d9dee3; stroke-width: 0.35; stroke-linecap: square"/>
   </g>
   <g id="line2d_47">
    <path d="M 813.898473 135.623385 
L 846.447709 135.623385 
" clip-path="url(#p0d802d8ea8)" style="fill: none; stroke: #d9dee3; stroke-width: 0.35; stroke-linecap: square"/>
   </g>
   <g id="line2d_48">
    <path d="M 813.898473 135.623385 
L 846.447709 115.958221 
" clip-path="url(#p0d802d8ea8)" style="fill: none; stroke: #d9dee3; stroke-width: 0.35; stroke-linecap: square"/>
   </g>
   <g id="line2d_49">
    <path d="M 813.898473 135.623385 
L 846.447709 96.293058 
" clip-path="url(#p0d802d8ea8)" style="fill: none; stroke: #d9dee3; stroke-width: 0.35; stroke-linecap: square"/>
   </g>
   <g id="line2d_50">
    <path d="M 813.898473 135.623385 
L 846.447709 76.627894 
" clip-path="url(#p0d802d8ea8)" style="fill: none; stroke: #d9dee3; stroke-width: 0.35; stroke-linecap: square"/>
   </g>
   <g id="line2d_51">
    <path d="M 813.898473 135.623385 
L 846.447709 56.96273 
" clip-path="url(#p0d802d8ea8)" style="fill: none; stroke: #d9dee3; stroke-width: 0.35; stroke-linecap: square"/>
   </g>
   <g id="line2d_52">
    <path d="M 813.898473 109.403167 
L 846.447709 135.623385 
" clip-path="url(#p0d802d8ea8)" style="fill: none; stroke: #d9dee3; stroke-width: 0.35; stroke-linecap: square"/>
   </g>
   <g id="line2d_53">
    <path d="M 813.898473 109.403167 
L 846.447709 115.958221 
" clip-path="url(#p0d802d8ea8)" style="fill: none; stroke: #d9dee3; stroke-width: 0.35; stroke-linecap: square"/>
   </g>
   <g id="line2d_54">
    <path d="M 813.898473 109.403167 
L 846.447709 96.293058 
" clip-path="url(#p0d802d8ea8)" style="fill: none; stroke: #d9dee3; stroke-width: 0.35; stroke-linecap: square"/>
   </g>
   <g id="line2d_55">
    <path d="M 813.898473 109.403167 
L 846.447709 76.627894 
" clip-path="url(#p0d802d8ea8)" style="fill: none; stroke: #d9dee3; stroke-width: 0.35; stroke-linecap: square"/>
   </g>
   <g id="line2d_56">
    <path d="M 813.898473 109.403167 
L 846.447709 56.96273 
" clip-path="url(#p0d802d8ea8)" style="fill: none; stroke: #d9dee3; stroke-width: 0.35; stroke-linecap: square"/>
   </g>
   <g id="line2d_57">
    <path d="M 813.898473 83.182948 
L 846.447709 135.623385 
" clip-path="url(#p0d802d8ea8)" style="fill: none; stroke: #d9dee3; stroke-width: 0.35; stroke-linecap: square"/>
   </g>
   <g id="line2d_58">
    <path d="M 813.898473 83.182948 
L 846.447709 115.958221 
" clip-path="url(#p0d802d8ea8)" style="fill: none; stroke: #d9dee3; stroke-width: 0.35; stroke-linecap: square"/>
   </g>
   <g id="line2d_59">
    <path d="M 813.898473 83.182948 
L 846.447709 96.293058 
" clip-path="url(#p0d802d8ea8)" style="fill: none; stroke: #d9dee3; stroke-width: 0.35; stroke-linecap: square"/>
   </g>
   <g id="line2d_60">
    <path d="M 813.898473 83.182948 
L 846.447709 76.627894 
" clip-path="url(#p0d802d8ea8)" style="fill: none; stroke: #d9dee3; stroke-width: 0.35; stroke-linecap: square"/>
   </g>
   <g id="line2d_61">
    <path d="M 813.898473 83.182948 
L 846.447709 56.96273 
" clip-path="url(#p0d802d8ea8)" style="fill: none; stroke: #d9dee3; stroke-width: 0.35; stroke-linecap: square"/>
   </g>
   <g id="line2d_62">
    <path d="M 813.898473 56.96273 
L 846.447709 135.623385 
" clip-path="url(#p0d802d8ea8)" style="fill: none; stroke: #d9dee3; stroke-width: 0.35; stroke-linecap: square"/>
   </g>
   <g id="line2d_63">
    <path d="M 813.898473 56.96273 
L 846.447709 115.958221 
" clip-path="url(#p0d802d8ea8)" style="fill: none; stroke: #d9dee3; stroke-width: 0.35; stroke-linecap: square"/>
   </g>
   <g id="line2d_64">
    <path d="M 813.898473 56.96273 
L 846.447709 96.293058 
" clip-path="url(#p0d802d8ea8)" style="fill: none; stroke: #d9dee3; stroke-width: 0.35; stroke-linecap: square"/>
   </g>
   <g id="line2d_65">
    <path d="M 813.898473 56.96273 
L 846.447709 76.627894 
" clip-path="url(#p0d802d8ea8)" style="fill: none; stroke: #d9dee3; stroke-width: 0.35; stroke-linecap: square"/>
   </g>
   <g id="line2d_66">
    <path d="M 813.898473 56.96273 
L 846.447709 56.96273 
" clip-path="url(#p0d802d8ea8)" style="fill: none; stroke: #d9dee3; stroke-width: 0.35; stroke-linecap: square"/>
   </g>
   <g id="patch_32">
    <path d="M 748.8 140.031094 
C 749.968938 140.031094 751.090157 139.56667 751.916721 138.740106 
C 752.743285 137.913542 753.207709 136.792323 753.207709 135.623385 
C 753.207709 134.454447 752.743285 133.333228 751.916721 132.506664 
C 751.090157 131.6801 749.968938 131.215676 748.8 131.215676 
C 747.631062 131.215676 746.509843 131.6801 745.683279 132.506664 
C 744.856715 133.333228 744.392291 134.454447 744.392291 135.623385 
C 744.392291 136.792323 744.856715 137.913542 745.683279 138.740106 
C 746.509843 139.56667 747.631062 140.031094 748.8 140.031094 
z
" clip-path="url(#p0d802d8ea8)" style="fill: #dceaf1; stroke: #20252b; stroke-width: 0.8; stroke-linejoin: miter"/>
   </g>
   <g id="patch_33">
    <path d="M 748.8 120.36593 
C 749.968938 120.36593 751.090157 119.901506 751.916721 119.074942 
C 752.743285 118.248378 753.207709 117.127159 753.207709 115.958221 
C 753.207709 114.789283 752.743285 113.668064 751.916721 112.8415 
C 751.090157 112.014936 749.968938 111.550512 748.8 111.550512 
C 747.631062 111.550512 746.509843 112.014936 745.683279 112.8415 
C 744.856715 113.668064 744.392291 114.789283 744.392291 115.958221 
C 744.392291 117.127159 744.856715 118.248378 745.683279 119.074942 
C 746.509843 119.901506 747.631062 120.36593 748.8 120.36593 
z
" clip-path="url(#p0d802d8ea8)" style="fill: #dceaf1; stroke: #20252b; stroke-width: 0.8; stroke-linejoin: miter"/>
   </g>
   <g id="patch_34">
    <path d="M 748.8 100.700767 
C 749.968938 100.700767 751.090157 100.236343 751.916721 99.409779 
C 752.743285 98.583214 753.207709 97.461996 753.207709 96.293058 
C 753.207709 95.124119 752.743285 94.002901 751.916721 93.176337 
C 751.090157 92.349772 749.968938 91.885348 748.8 91.885348 
C 747.631062 91.885348 746.509843 92.349772 745.683279 93.176337 
C 744.856715 94.002901 744.392291 95.124119 744.392291 96.293058 
C 744.392291 97.461996 744.856715 98.583214 745.683279 99.409779 
C 746.509843 100.236343 747.631062 100.700767 748.8 100.700767 
z
" clip-path="url(#p0d802d8ea8)" style="fill: #dceaf1; stroke: #20252b; stroke-width: 0.8; stroke-linejoin: miter"/>
   </g>
   <g id="patch_35">
    <path d="M 748.8 81.035603 
C 749.968938 81.035603 751.090157 80.571179 751.916721 79.744615 
C 752.743285 78.918051 753.207709 77.796832 753.207709 76.627894 
C 753.207709 75.458956 752.743285 74.337737 751.916721 73.511173 
C 751.090157 72.684609 749.968938 72.220185 748.8 72.220185 
C 747.631062 72.220185 746.509843 72.684609 745.683279 73.511173 
C 744.856715 74.337737 744.392291 75.458956 744.392291 76.627894 
C 744.392291 77.796832 744.856715 78.918051 745.683279 79.744615 
C 746.509843 80.571179 747.631062 81.035603 748.8 81.035603 
z
" clip-path="url(#p0d802d8ea8)" style="fill: #dceaf1; stroke: #20252b; stroke-width: 0.8; stroke-linejoin: miter"/>
   </g>
   <g id="patch_36">
    <path d="M 748.8 61.370439 
C 749.968938 61.370439 751.090157 60.906015 751.916721 60.079451 
C 752.743285 59.252887 753.207709 58.131668 753.207709 56.96273 
C 753.207709 55.793792 752.743285 54.672573 751.916721 53.846009 
C 751.090157 53.019445 749.968938 52.555021 748.8 52.555021 
C 747.631062 52.555021 746.509843 53.019445 745.683279 53.846009 
C 744.856715 54.672573 744.392291 55.793792 744.392291 56.96273 
C 744.392291 58.131668 744.856715 59.252887 745.683279 60.079451 
C 746.509843 60.906015 747.631062 61.370439 748.8 61.370439 
z
" clip-path="url(#p0d802d8ea8)" style="fill: #dceaf1; stroke: #20252b; stroke-width: 0.8; stroke-linejoin: miter"/>
   </g>
   <g id="patch_37">
    <path d="M 781.349236 140.031094 
C 782.518174 140.031094 783.639393 139.56667 784.465957 138.740106 
C 785.292521 137.913542 785.756945 136.792323 785.756945 135.623385 
C 785.756945 134.454447 785.292521 133.333228 784.465957 132.506664 
C 783.639393 131.6801 782.518174 131.215676 781.349236 131.215676 
C 780.180298 131.215676 779.059079 131.6801 778.232515 132.506664 
C 777.405951 133.333228 776.941527 134.454447 776.941527 135.623385 
C 776.941527 136.792323 777.405951 137.913542 778.232515 138.740106 
C 779.059079 139.56667 780.180298 140.031094 781.349236 140.031094 
z
" clip-path="url(#p0d802d8ea8)" style="fill: #ffffff; stroke: #20252b; stroke-width: 0.8; stroke-linejoin: miter"/>
   </g>
   <g id="patch_38">
    <path d="M 781.349236 113.810876 
C 782.518174 113.810876 783.639393 113.346452 784.465957 112.519888 
C 785.292521 111.693324 785.756945 110.572105 785.756945 109.403167 
C 785.756945 108.234229 785.292521 107.11301 784.465957 106.286446 
C 783.639393 105.459882 782.518174 104.995458 781.349236 104.995458 
C 780.180298 104.995458 779.059079 105.459882 778.232515 106.286446 
C 777.405951 107.11301 776.941527 108.234229 776.941527 109.403167 
C 776.941527 110.572105 777.405951 111.693324 778.232515 112.519888 
C 779.059079 113.346452 780.180298 113.810876 781.349236 113.810876 
z
" clip-path="url(#p0d802d8ea8)" style="fill: #ffffff; stroke: #20252b; stroke-width: 0.8; stroke-linejoin: miter"/>
   </g>
   <g id="patch_39">
    <path d="M 781.349236 87.590658 
C 782.518174 87.590658 783.639393 87.126233 784.465957 86.299669 
C 785.292521 85.473105 785.756945 84.351887 785.756945 83.182948 
C 785.756945 82.01401 785.292521 80.892792 784.465957 80.066227 
C 783.639393 79.239663 782.518174 78.775239 781.349236 78.775239 
C 780.180298 78.775239 779.059079 79.239663 778.232515 80.066227 
C 777.405951 80.892792 776.941527 82.01401 776.941527 83.182948 
C 776.941527 84.351887 777.405951 85.473105 778.232515 86.299669 
C 779.059079 87.126233 780.180298 87.590658 781.349236 87.590658 
z
" clip-path="url(#p0d802d8ea8)" style="fill: #ffffff; stroke: #20252b; stroke-width: 0.8; stroke-linejoin: miter"/>
   </g>
   <g id="patch_40">
    <path d="M 781.349236 61.370439 
C 782.518174 61.370439 783.639393 60.906015 784.465957 60.079451 
C 785.292521 59.252887 785.756945 58.131668 785.756945 56.96273 
C 785.756945 55.793792 785.292521 54.672573 784.465957 53.846009 
C 783.639393 53.019445 782.518174 52.555021 781.349236 52.555021 
C 780.180298 52.555021 779.059079 53.019445 778.232515 53.846009 
C 777.405951 54.672573 776.941527 55.793792 776.941527 56.96273 
C 776.941527 58.131668 777.405951 59.252887 778.232515 60.079451 
C 779.059079 60.906015 780.180298 61.370439 781.349236 61.370439 
z
" clip-path="url(#p0d802d8ea8)" style="fill: #ffffff; stroke: #20252b; stroke-width: 0.8; stroke-linejoin: miter"/>
   </g>
   <g id="patch_41">
    <path d="M 813.898473 140.031094 
C 815.067411 140.031094 816.18863 139.56667 817.015194 138.740106 
C 817.841758 137.913542 818.306182 136.792323 818.306182 135.623385 
C 818.306182 134.454447 817.841758 133.333228 817.015194 132.506664 
C 816.18863 131.6801 815.067411 131.215676 813.898473 131.215676 
C 812.729535 131.215676 811.608316 131.6801 810.781752 132.506664 
C 809.955188 133.333228 809.490764 134.454447 809.490764 135.623385 
C 809.490764 136.792323 809.955188 137.913542 810.781752 138.740106 
C 811.608316 139.56667 812.729535 140.031094 813.898473 140.031094 
z
" clip-path="url(#p0d802d8ea8)" style="fill: #ffffff; stroke: #20252b; stroke-width: 0.8; stroke-linejoin: miter"/>
   </g>
   <g id="patch_42">
    <path d="M 813.898473 113.810876 
C 815.067411 113.810876 816.18863 113.346452 817.015194 112.519888 
C 817.841758 111.693324 818.306182 110.572105 818.306182 109.403167 
C 818.306182 108.234229 817.841758 107.11301 817.015194 106.286446 
C 816.18863 105.459882 815.067411 104.995458 813.898473 104.995458 
C 812.729535 104.995458 811.608316 105.459882 810.781752 106.286446 
C 809.955188 107.11301 809.490764 108.234229 809.490764 109.403167 
C 809.490764 110.572105 809.955188 111.693324 810.781752 112.519888 
C 811.608316 113.346452 812.729535 113.810876 813.898473 113.810876 
z
" clip-path="url(#p0d802d8ea8)" style="fill: #ffffff; stroke: #20252b; stroke-width: 0.8; stroke-linejoin: miter"/>
   </g>
   <g id="patch_43">
    <path d="M 813.898473 87.590658 
C 815.067411 87.590658 816.18863 87.126233 817.015194 86.299669 
C 817.841758 85.473105 818.306182 84.351887 818.306182 83.182948 
C 818.306182 82.01401 817.841758 80.892792 817.015194 80.066227 
C 816.18863 79.239663 815.067411 78.775239 813.898473 78.775239 
C 812.729535 78.775239 811.608316 79.239663 810.781752 80.066227 
C 809.955188 80.892792 809.490764 82.01401 809.490764 83.182948 
C 809.490764 84.351887 809.955188 85.473105 810.781752 86.299669 
C 811.608316 87.126233 812.729535 87.590658 813.898473 87.590658 
z
" clip-path="url(#p0d802d8ea8)" style="fill: #ffffff; stroke: #20252b; stroke-width: 0.8; stroke-linejoin: miter"/>
   </g>
   <g id="patch_44">
    <path d="M 813.898473 61.370439 
C 815.067411 61.370439 816.18863 60.906015 817.015194 60.079451 
C 817.841758 59.252887 818.306182 58.131668 818.306182 56.96273 
C 818.306182 55.793792 817.841758 54.672573 817.015194 53.846009 
C 816.18863 53.019445 815.067411 52.555021 813.898473 52.555021 
C 812.729535 52.555021 811.608316 53.019445 810.781752 53.846009 
C 809.955188 54.672573 809.490764 55.793792 809.490764 56.96273 
C 809.490764 58.131668 809.955188 59.252887 810.781752 60.079451 
C 811.608316 60.906015 812.729535 61.370439 813.898473 61.370439 
z
" clip-path="url(#p0d802d8ea8)" style="fill: #ffffff; stroke: #20252b; stroke-width: 0.8; stroke-linejoin: miter"/>
   </g>
   <g id="patch_45">
    <path d="M 846.447709 140.031094 
C 847.616647 140.031094 848.737866 139.56667 849.56443 138.740106 
C 850.390994 137.913542 850.855418 136.792323 850.855418 135.623385 
C 850.855418 134.454447 850.390994 133.333228 849.56443 132.506664 
C 848.737866 131.6801 847.616647 131.215676 846.447709 131.215676 
C 845.278771 131.215676 844.157552 131.6801 843.330988 132.506664 
C 842.504424 133.333228 842.04 134.454447 842.04 135.623385 
C 842.04 136.792323 842.504424 137.913542 843.330988 138.740106 
C 844.157552 139.56667 845.278771 140.031094 846.447709 140.031094 
z
" clip-path="url(#p0d802d8ea8)" style="fill: #dceaf1; stroke: #20252b; stroke-width: 0.8; stroke-linejoin: miter"/>
   </g>
   <g id="patch_46">
    <path d="M 846.447709 120.36593 
C 847.616647 120.36593 848.737866 119.901506 849.56443 119.074942 
C 850.390994 118.248378 850.855418 117.127159 850.855418 115.958221 
C 850.855418 114.789283 850.390994 113.668064 849.56443 112.8415 
C 848.737866 112.014936 847.616647 111.550512 846.447709 111.550512 
C 845.278771 111.550512 844.157552 112.014936 843.330988 112.8415 
C 842.504424 113.668064 842.04 114.789283 842.04 115.958221 
C 842.04 117.127159 842.504424 118.248378 843.330988 119.074942 
C 844.157552 119.901506 845.278771 120.36593 846.447709 120.36593 
z
" clip-path="url(#p0d802d8ea8)" style="fill: #dceaf1; stroke: #20252b; stroke-width: 0.8; stroke-linejoin: miter"/>
   </g>
   <g id="patch_47">
    <path d="M 846.447709 100.700767 
C 847.616647 100.700767 848.737866 100.236343 849.56443 99.409779 
C 850.390994 98.583214 850.855418 97.461996 850.855418 96.293058 
C 850.855418 95.124119 850.390994 94.002901 849.56443 93.176337 
C 848.737866 92.349772 847.616647 91.885348 846.447709 91.885348 
C 845.278771 91.885348 844.157552 92.349772 843.330988 93.176337 
C 842.504424 94.002901 842.04 95.124119 842.04 96.293058 
C 842.04 97.461996 842.504424 98.583214 843.330988 99.409779 
C 844.157552 100.236343 845.278771 100.700767 846.447709 100.700767 
z
" clip-path="url(#p0d802d8ea8)" style="fill: #dceaf1; stroke: #20252b; stroke-width: 0.8; stroke-linejoin: miter"/>
   </g>
   <g id="patch_48">
    <path d="M 846.447709 81.035603 
C 847.616647 81.035603 848.737866 80.571179 849.56443 79.744615 
C 850.390994 78.918051 850.855418 77.796832 850.855418 76.627894 
C 850.855418 75.458956 850.390994 74.337737 849.56443 73.511173 
C 848.737866 72.684609 847.616647 72.220185 846.447709 72.220185 
C 845.278771 72.220185 844.157552 72.684609 843.330988 73.511173 
C 842.504424 74.337737 842.04 75.458956 842.04 76.627894 
C 842.04 77.796832 842.504424 78.918051 843.330988 79.744615 
C 844.157552 80.571179 845.278771 81.035603 846.447709 81.035603 
z
" clip-path="url(#p0d802d8ea8)" style="fill: #dceaf1; stroke: #20252b; stroke-width: 0.8; stroke-linejoin: miter"/>
   </g>
   <g id="patch_49">
    <path d="M 846.447709 61.370439 
C 847.616647 61.370439 848.737866 60.906015 849.56443 60.079451 
C 850.390994 59.252887 850.855418 58.131668 850.855418 56.96273 
C 850.855418 55.793792 850.390994 54.672573 849.56443 53.846009 
C 848.737866 53.019445 847.616647 52.555021 846.447709 52.555021 
C 845.278771 52.555021 844.157552 53.019445 843.330988 53.846009 
C 842.504424 54.672573 842.04 55.793792 842.04 56.96273 
C 842.04 58.131668 842.504424 59.252887 843.330988 60.079451 
C 844.157552 60.906015 845.278771 61.370439 846.447709 61.370439 
z
" clip-path="url(#p0d802d8ea8)" style="fill: #dceaf1; stroke: #20252b; stroke-width: 0.8; stroke-linejoin: miter"/>
   </g>
   <g id="text_19">
    <text style="font-weight: 600; font-size: 9px; font-family: 'DejaVu Sans'; text-anchor: start; fill: #20252b" x="731.169164" y="36.676257" transform="rotate(-0 731.169164 36.676257)">(e)</text>
   </g>
   <g id="text_20">
    <!-- $f_\theta:\mathbb{R}^{6}\rightarrow\mathbb{R}^{8}$ -->
    <g style="fill: #20252b" transform="translate(774.178855 157.195094)">
     <text>
      <tspan x="0" y="-0.60175" style="font-style: oblique; font-size: 9px; font-family: 'DejaVu Sans'; fill: #20252b">f</tspan>
      <tspan x="3.168457" y="0.748246" style="font-style: oblique; font-size: 6.3px; font-family: 'DejaVu Sans'; fill: #20252b">θ</tspan>
      <tspan x="9.022412" y="-0.60175" style="font-size: 9px; font-family: 'DejaVu Sans'; fill: #20252b">:</tspan>
      <tspan x="26.534255" y="-0.60175" style="font-size: 9px; font-family: 'DejaVu Sans'; fill: #20252b">→</tspan>
      <tspan x="13.808057" y="-0.60175" style="font-style: italic; font-size: 9px; font-family: 'STIXGeneral'; fill: #20252b">ℝ</tspan>
      <tspan x="35.828689" y="-0.60175" style="font-style: italic; font-size: 9px; font-family: 'STIXGeneral'; fill: #20252b">ℝ</tspan>
      <tspan x="20.526492" y="-4.31875" style="font-size: 6.3px; font-family: 'DejaVu Sans'; fill: #20252b">6</tspan>
      <tspan x="42.547124" y="-4.31875" style="font-size: 6.3px; font-family: 'DejaVu Sans'; fill: #20252b">8</tspan>
     </text>
    </g>
   </g>
   <g id="text_21">
    <text style="font-weight: 600; font-size: 10px; font-family: 'DejaVu Sans'; fill: #20252b" transform="translate(763.153542 11.479414)">Inverse MLP</text>
    <text style="font-weight: 600; font-size: 10px; font-family: 'DejaVu Sans'; fill: #20252b" transform="translate(780.294167 23.482148)">model</text>
   </g>
  </g>
  <g id="axes_6">
   <g id="patch_50">
    <path d="M 979.357091 141.726367 
C 991.406145 141.726367 1002.963324 136.939227 1011.483292 128.419258 
C 1020.00326 119.89929 1024.7904 108.342112 1024.7904 96.293058 
C 1024.7904 84.244003 1020.00326 72.686825 1011.483292 64.166857 
C 1002.963324 55.646888 991.406145 50.859748 979.357091 50.859748 
C 967.308036 50.859748 955.750858 55.646888 947.23089 64.166857 
C 938.710922 72.686825 933.923782 84.244003 933.923782 96.293058 
C 933.923782 108.342112 938.710922 119.89929 947.23089 128.419258 
C 955.750858 136.939227 967.308036 141.726367 979.357091 141.726367 
L 979.357091 141.726367 
z
" clip-path="url(#pc9ccb6f72d)" style="fill: none; stroke-dasharray: 2.96,1.28; stroke-dashoffset: 0; stroke: #89939d; stroke-width: 0.8; stroke-linejoin: miter"/>
   </g>
   <g id="patch_51">
    <path d="M 945.451636 71.203021 
C 947.789513 71.203021 950.03195 70.274173 951.685078 68.621045 
C 953.338206 66.967917 954.267055 64.725479 954.267055 62.387603 
C 954.267055 60.049727 953.338206 57.807289 951.685078 56.154161 
C 950.03195 54.501033 947.789513 53.572185 945.451636 53.572185 
C 943.11376 53.572185 940.871323 54.501033 939.218194 56.154161 
C 937.565066 57.807289 936.636218 60.049727 936.636218 62.387603 
C 936.636218 64.725479 937.565066 66.967917 939.218194 68.621045 
C 940.871323 70.274173 943.11376 71.203021 945.451636 71.203021 
L 945.451636 71.203021 
z
" clip-path="url(#pc9ccb6f72d)" style="fill: none; stroke-dasharray: 0.8,1.32; stroke-dashoffset: 0; stroke: #89939d; stroke-width: 0.8; stroke-linejoin: miter"/>
   </g>
   <g id="patch_52">
    <path d="M 950.876509 69.168694 
C 953.214385 69.168694 955.456823 68.239846 957.109951 66.586718 
C 958.763079 64.93359 959.691927 62.691152 959.691927 60.353276 
C 959.691927 58.015399 958.763079 55.772962 957.109951 54.119834 
C 955.456823 52.466706 953.214385 51.537858 950.876509 51.537858 
C 948.538633 51.537858 946.296195 52.466706 944.643067 54.119834 
C 942.989939 55.772962 942.061091 58.015399 942.061091 60.353276 
C 942.061091 62.691152 942.989939 64.93359 944.643067 66.586718 
C 946.296195 68.239846 948.538633 69.168694 950.876509 69.168694 
z
" clip-path="url(#pc9ccb6f72d)" style="fill: #dceaf1; stroke: #20252b; stroke-linejoin: miter"/>
   </g>
   <g id="patch_53">
    <path d="M 1013.262545 71.203021 
C 1015.600422 71.203021 1017.842859 70.274173 1019.495987 68.621045 
C 1021.149116 66.967917 1022.077964 64.725479 1022.077964 62.387603 
C 1022.077964 60.049727 1021.149116 57.807289 1019.495987 56.154161 
C 1017.842859 54.501033 1015.600422 53.572185 1013.262545 53.572185 
C 1010.924669 53.572185 1008.682232 54.501033 1007.029103 56.154161 
C 1005.375975 57.807289 1004.447127 60.049727 1004.447127 62.387603 
C 1004.447127 64.725479 1005.375975 66.967917 1007.029103 68.621045 
C 1008.682232 70.274173 1010.924669 71.203021 1013.262545 71.203021 
L 1013.262545 71.203021 
z
" clip-path="url(#pc9ccb6f72d)" style="fill: none; stroke-dasharray: 0.8,1.32; stroke-dashoffset: 0; stroke: #89939d; stroke-width: 0.8; stroke-linejoin: miter"/>
   </g>
   <g id="patch_54">
    <path d="M 1011.228218 65.778148 
C 1013.566094 65.778148 1015.808532 64.8493 1017.46166 63.196172 
C 1019.114788 61.543044 1020.043636 59.300606 1020.043636 56.96273 
C 1020.043636 54.624854 1019.114788 52.382416 1017.46166 50.729288 
C 1015.808532 49.07616 1013.566094 48.147312 1011.228218 48.147312 
C 1008.890342 48.147312 1006.647904 49.07616 1004.994776 50.729288 
C 1003.341648 52.382416 1002.4128 54.624854 1002.4128 56.96273 
C 1002.4128 59.300606 1003.341648 61.543044 1004.994776 63.196172 
C 1006.647904 64.8493 1008.890342 65.778148 1011.228218 65.778148 
z
" clip-path="url(#pc9ccb6f72d)" style="fill: #dceaf1; stroke: #20252b; stroke-linejoin: miter"/>
   </g>
   <g id="patch_55">
    <path d="M 945.451636 139.01393 
C 947.789513 139.01393 950.03195 138.085082 951.685078 136.431954 
C 953.338206 134.778826 954.267055 132.536388 954.267055 130.198512 
C 954.267055 127.860636 953.338206 125.618198 951.685078 123.96507 
C 950.03195 122.311942 947.789513 121.383094 945.451636 121.383094 
C 943.11376 121.383094 940.871323 122.311942 939.218194 123.96507 
C 937.565066 125.618198 936.636218 127.860636 936.636218 130.198512 
C 936.636218 132.536388 937.565066 134.778826 939.218194 136.431954 
C 940.871323 138.085082 943.11376 139.01393 945.451636 139.01393 
L 945.451636 139.01393 
z
" clip-path="url(#pc9ccb6f72d)" style="fill: none; stroke-dasharray: 0.8,1.32; stroke-dashoffset: 0; stroke: #89939d; stroke-width: 0.8; stroke-linejoin: miter"/>
   </g>
   <g id="patch_56">
    <path d="M 940.704873 140.370148 
C 943.042749 140.370148 945.285187 139.4413 946.938315 137.788172 
C 948.591443 136.135044 949.520291 133.892606 949.520291 131.55473 
C 949.520291 129.216854 948.591443 126.974416 946.938315 125.321288 
C 945.285187 123.66816 943.042749 122.739312 940.704873 122.739312 
C 938.366996 122.739312 936.124559 123.66816 934.471431 125.321288 
C 932.818303 126.974416 931.889455 129.216854 931.889455 131.55473 
C 931.889455 133.892606 932.818303 136.135044 934.471431 137.788172 
C 936.124559 139.4413 938.366996 140.370148 940.704873 140.370148 
z
" clip-path="url(#pc9ccb6f72d)" style="fill: #dceaf1; stroke: #20252b; stroke-linejoin: miter"/>
   </g>
   <g id="patch_57">
    <path d="M 1013.262545 139.01393 
C 1015.600422 139.01393 1017.842859 138.085082 1019.495987 136.431954 
C 1021.149116 134.778826 1022.077964 132.536388 1022.077964 130.198512 
C 1022.077964 127.860636 1021.149116 125.618198 1019.495987 123.96507 
C 1017.842859 122.311942 1015.600422 121.383094 1013.262545 121.383094 
C 1010.924669 121.383094 1008.682232 122.311942 1007.029103 123.96507 
C 1005.375975 125.618198 1004.447127 127.860636 1004.447127 130.198512 
C 1004.447127 132.536388 1005.375975 134.778826 1007.029103 136.431954 
C 1008.682232 138.085082 1010.924669 139.01393 1013.262545 139.01393 
L 1013.262545 139.01393 
z
" clip-path="url(#pc9ccb6f72d)" style="fill: none; stroke-dasharray: 0.8,1.32; stroke-dashoffset: 0; stroke: #89939d; stroke-width: 0.8; stroke-linejoin: miter"/>
   </g>
   <g id="patch_58">
    <path d="M 1015.974982 143.760694 
C 1018.312858 143.760694 1020.555296 142.831846 1022.208424 141.178718 
C 1023.861552 139.52559 1024.7904 137.283152 1024.7904 134.945276 
C 1024.7904 132.607399 1023.861552 130.364962 1022.208424 128.711834 
C 1020.555296 127.058706 1018.312858 126.129858 1015.974982 126.129858 
C 1013.637106 126.129858 1011.394668 127.058706 1009.74154 128.711834 
C 1008.088412 130.364962 1007.159564 132.607399 1007.159564 134.945276 
C 1007.159564 137.283152 1008.088412 139.52559 1009.74154 141.178718 
C 1011.394668 142.831846 1013.637106 143.760694 1015.974982 143.760694 
z
" clip-path="url(#pc9ccb6f72d)" style="fill: #dceaf1; stroke: #20252b; stroke-linejoin: miter"/>
   </g>
   <g id="text_22">
    <text style="font-weight: 600; font-size: 9px; font-family: 'DejaVu Sans'; text-anchor: start; fill: #20252b" x="912.9024" y="36.67696" transform="rotate(-0 912.9024 36.67696)">(f)</text>
   </g>
   <g id="patch_59">
    <path d="M 952.747931 59.651492 
Q 954.943133 58.828292 955.882118 58.476172 
" style="fill: none; stroke: #2f6b8a; stroke-width: 1.2; stroke-linecap: round"/>
    <path d="M 951.879311 58.054824 
L 955.882118 58.476172 
L 953.143355 61.425609 
z
" style="fill: #2f6b8a; stroke: #2f6b8a; stroke-width: 1.2; stroke-linecap: round"/>
   </g>
   <g id="text_23">
    <text style="font-size: 7px; font-family: 'DejaVu Sans'; text-anchor: middle; fill: #20252b" x="950.876509" y="62.171635" transform="rotate(-0 950.876509 62.171635)">1</text>
   </g>
   <g id="patch_60">
    <path d="M 1010.526435 55.091308 
Q 1009.703234 52.896106 1009.351115 51.957121 
" style="fill: none; stroke: #2f6b8a; stroke-width: 1.2; stroke-linecap: round"/>
    <path d="M 1008.929767 55.959929 
L 1009.351115 51.957121 
L 1012.300552 54.695884 
z
" style="fill: #2f6b8a; stroke: #2f6b8a; stroke-width: 1.2; stroke-linecap: round"/>
   </g>
   <g id="text_24">
    <text style="font-size: 7px; font-family: 'DejaVu Sans'; text-anchor: middle; fill: #20252b" x="1011.228218" y="58.78109" transform="rotate(-0 1011.228218 58.78109)">2</text>
   </g>
   <g id="patch_61">
    <path d="M 938.782294 132.104038 
Q 937.144096 132.572095 936.795918 132.671574 
" style="fill: none; stroke: #2f6b8a; stroke-width: 1.2; stroke-linecap: round"/>
    <path d="M 940.751902 133.413321 
L 936.795918 132.671574 
L 939.762906 129.951835 
z
" style="fill: #2f6b8a; stroke: #2f6b8a; stroke-width: 1.2; stroke-linecap: round"/>
   </g>
   <g id="text_25">
    <text style="font-size: 7px; font-family: 'DejaVu Sans'; text-anchor: middle; fill: #20252b" x="940.704873" y="133.37309" transform="rotate(-0 940.704873 133.37309)">3</text>
   </g>
   <g id="patch_62">
    <path d="M 1016.966319 136.680116 
Q 1018.00837 138.503704 1018.38478 139.162422 
" style="fill: none; stroke: #2f6b8a; stroke-width: 1.2; stroke-linecap: round"/>
    <path d="M 1018.161517 135.143697 
L 1018.38478 139.162422 
L 1015.035842 136.929797 
z
" style="fill: #2f6b8a; stroke: #2f6b8a; stroke-width: 1.2; stroke-linecap: round"/>
   </g>
   <g id="text_26">
    <text style="font-size: 7px; font-family: 'DejaVu Sans'; text-anchor: middle; fill: #20252b" x="1015.974982" y="136.763635" transform="rotate(-0 1015.974982 136.763635)">4</text>
   </g>
   <g id="text_27">
    <!-- $\hat{\mathbf{d}}\in\mathbb{R}^{8}$ -->
    <g style="fill: #20252b" transform="translate(964.957091 155.838875)">
     <text>
      <tspan x="6.266846" y="-3.796875" style="font-size: 9px; font-family: 'DejaVu Sans'; fill: #20252b">̂</tspan>
      <tspan x="8.195801" y="-0.875" style="font-size: 9px; font-family: 'DejaVu Sans'; fill: #20252b">∈</tspan>
      <tspan x="0" y="-0.875" style="font-weight: 700; font-size: 9px; font-family: 'DejaVu Sans'; fill: #20252b">d</tspan>
      <tspan x="17.789062" y="-0.875" style="font-style: italic; font-size: 9px; font-family: 'STIXGeneral'; fill: #20252b">ℝ</tspan>
      <tspan x="24.507498" y="-4.592" style="font-size: 6.3px; font-family: 'DejaVu Sans'; fill: #20252b">8</tspan>
     </text>
    </g>
   </g>
   <g id="text_28">
    <text style="font-weight: 600; font-size: 10px; font-family: 'DejaVu Sans'; fill: #20252b" transform="translate(938.442247 11.479414)">Reconstructed</text>
    <text style="font-weight: 600; font-size: 10px; font-family: 'DejaVu Sans'; fill: #20252b" transform="translate(938.539122 23.482148)">displacements</text>
   </g>
  </g>
  <g id="patch_63">
   <path d="M 143.215802 96.293058 
Q 161.559537 96.293058 178.561631 96.293058 
" style="fill: none; stroke: #20252b; stroke-width: 1.2; stroke-linecap: round"/>
   <path d="M 173.761631 93.893058 
L 178.561631 96.293058 
L 173.761631 98.693058 
z
" style="fill: #20252b; stroke: #20252b; stroke-width: 1.2; stroke-linecap: round"/>
  </g>
  <g id="patch_64">
   <path d="M 324.949038 96.293058 
Q 343.292773 96.293058 360.294867 96.293058 
" style="fill: none; stroke: #20252b; stroke-width: 1.2; stroke-linecap: round"/>
   <path d="M 355.494867 93.893058 
L 360.294867 96.293058 
L 355.494867 98.693058 
z
" style="fill: #20252b; stroke: #20252b; stroke-width: 1.2; stroke-linecap: round"/>
  </g>
  <g id="patch_65">
   <path d="M 506.682275 96.293058 
Q 525.02601 96.293058 542.028103 96.293058 
" style="fill: none; stroke: #20252b; stroke-width: 1.2; stroke-linecap: round"/>
   <path d="M 537.228103 93.893058 
L 542.028103 96.293058 
L 537.228103 98.693058 
z
" style="fill: #20252b; stroke: #20252b; stroke-width: 1.2; stroke-linecap: round"/>
  </g>
  <g id="patch_66">
   <path d="M 688.415511 96.293058 
Q 706.759246 96.293058 723.76134 96.293058 
" style="fill: none; stroke: #20252b; stroke-width: 1.2; stroke-linecap: round"/>
   <path d="M 718.96134 93.893058 
L 723.76134 96.293058 
L 718.96134 98.693058 
z
" style="fill: #20252b; stroke: #20252b; stroke-width: 1.2; stroke-linecap: round"/>
  </g>
  <g id="patch_67">
   <path d="M 870.148748 96.293058 
Q 888.492482 96.293058 905.494576 96.293058 
" style="fill: none; stroke: #20252b; stroke-width: 1.2; stroke-linecap: round"/>
   <path d="M 900.694576 93.893058 
L 905.494576 96.293058 
L 900.694576 98.693058 
z
" style="fill: #20252b; stroke: #20252b; stroke-width: 1.2; stroke-linecap: round"/>
  </g>
  <g id="text_29">
   <!-- Synthetic forward map: 8 electrode-displacement coordinates $\rightarrow$ 6 minimum coordinates; inverse regression reconstructs 8 coordinates -->
   <g style="fill: #20252b" transform="translate(252.024 198.915183)">
    <text>
     <tspan x="0" y="-0.921875" style="font-size: 8px; font-family: 'DejaVu Sans'; fill: #20252b">S</tspan>
     <tspan x="5.078125" y="-0.921875" style="font-size: 8px; font-family: 'DejaVu Sans'; fill: #20252b">y</tspan>
     <tspan x="9.8125" y="-0.921875" style="font-size: 8px; font-family: 'DejaVu Sans'; fill: #20252b">n</tspan>
     <tspan x="14.882812" y="-0.921875" style="font-size: 8px; font-family: 'DejaVu Sans'; fill: #20252b">t</tspan>
     <tspan x="18.019531" y="-0.921875" style="font-size: 8px; font-family: 'DejaVu Sans'; fill: #20252b">h</tspan>
     <tspan x="23.089844" y="-0.921875" style="font-size: 8px; font-family: 'DejaVu Sans'; fill: #20252b">e</tspan>
     <tspan x="28.011719" y="-0.921875" style="font-size: 8px; font-family: 'DejaVu Sans'; fill: #20252b">t</tspan>
     <tspan x="31.148438" y="-0.921875" style="font-size: 8px; font-family: 'DejaVu Sans'; fill: #20252b">i</tspan>
     <tspan x="33.371094" y="-0.921875" style="font-size: 8px; font-family: 'DejaVu Sans'; fill: #20252b">c</tspan>
     <tspan x="37.769531" y="-0.921875" style="font-size: 8px; font-family: 'DejaVu Sans'; fill: #20252b"> </tspan>
     <tspan x="40.3125" y="-0.921875" style="font-size: 8px; font-family: 'DejaVu Sans'; fill: #20252b">f</tspan>
     <tspan x="43.128906" y="-0.921875" style="font-size: 8px; font-family: 'DejaVu Sans'; fill: #20252b">o</tspan>
     <tspan x="48.023438" y="-0.921875" style="font-size: 8px; font-family: 'DejaVu Sans'; fill: #20252b">r</tspan>
     <tspan x="51.3125" y="-0.921875" style="font-size: 8px; font-family: 'DejaVu Sans'; fill: #20252b">w</tspan>
     <tspan x="57.855469" y="-0.921875" style="font-size: 8px; font-family: 'DejaVu Sans'; fill: #20252b">a</tspan>
     <tspan x="62.757812" y="-0.921875" style="font-size: 8px; font-family: 'DejaVu Sans'; fill: #20252b">r</tspan>
     <tspan x="66.046875" y="-0.921875" style="font-size: 8px; font-family: 'DejaVu Sans'; fill: #20252b">d</tspan>
     <tspan x="71.125" y="-0.921875" style="font-size: 8px; font-family: 'DejaVu Sans'; fill: #20252b"> </tspan>
     <tspan x="73.667969" y="-0.921875" style="font-size: 8px; font-family: 'DejaVu Sans'; fill: #20252b">m</tspan>
     <tspan x="81.460938" y="-0.921875" style="font-size: 8px; font-family: 'DejaVu Sans'; fill: #20252b">a</tspan>
     <tspan x="86.363281" y="-0.921875" style="font-size: 8px; font-family: 'DejaVu Sans'; fill: #20252b">p</tspan>
     <tspan x="91.441406" y="-0.921875" style="font-size: 8px; font-family: 'DejaVu Sans'; fill: #20252b">:</tspan>
     <tspan x="94.136719" y="-0.921875" style="font-size: 8px; font-family: 'DejaVu Sans'; fill: #20252b"> </tspan>
     <tspan x="96.679688" y="-0.921875" style="font-size: 8px; font-family: 'DejaVu Sans'; fill: #20252b">8</tspan>
     <tspan x="101.769531" y="-0.921875" style="font-size: 8px; font-family: 'DejaVu Sans'; fill: #20252b"> </tspan>
     <tspan x="104.3125" y="-0.921875" style="font-size: 8px; font-family: 'DejaVu Sans'; fill: #20252b">e</tspan>
     <tspan x="109.234375" y="-0.921875" style="font-size: 8px; font-family: 'DejaVu Sans'; fill: #20252b">l</tspan>
     <tspan x="111.457031" y="-0.921875" style="font-size: 8px; font-family: 'DejaVu Sans'; fill: #20252b">e</tspan>
     <tspan x="116.378906" y="-0.921875" style="font-size: 8px; font-family: 'DejaVu Sans'; fill: #20252b">c</tspan>
     <tspan x="120.777344" y="-0.921875" style="font-size: 8px; font-family: 'DejaVu Sans'; fill: #20252b">t</tspan>
     <tspan x="123.914062" y="-0.921875" style="font-size: 8px; font-family: 'DejaVu Sans'; fill: #20252b">r</tspan>
     <tspan x="127.203125" y="-0.921875" style="font-size: 8px; font-family: 'DejaVu Sans'; fill: #20252b">o</tspan>
     <tspan x="132.097656" y="-0.921875" style="font-size: 8px; font-family: 'DejaVu Sans'; fill: #20252b">d</tspan>
     <tspan x="137.175781" y="-0.921875" style="font-size: 8px; font-family: 'DejaVu Sans'; fill: #20252b">e</tspan>
     <tspan x="142.097656" y="-0.921875" style="font-size: 8px; font-family: 'DejaVu Sans'; fill: #20252b">-</tspan>
     <tspan x="144.984375" y="-0.921875" style="font-size: 8px; font-family: 'DejaVu Sans'; fill: #20252b">d</tspan>
     <tspan x="150.0625" y="-0.921875" style="font-size: 8px; font-family: 'DejaVu Sans'; fill: #20252b">i</tspan>
     <tspan x="152.285156" y="-0.921875" style="font-size: 8px; font-family: 'DejaVu Sans'; fill: #20252b">s</tspan>
     <tspan x="156.453125" y="-0.921875" style="font-size: 8px; font-family: 'DejaVu Sans'; fill: #20252b">p</tspan>
     <tspan x="161.53125" y="-0.921875" style="font-size: 8px; font-family: 'DejaVu Sans'; fill: #20252b">l</tspan>
     <tspan x="163.753906" y="-0.921875" style="font-size: 8px; font-family: 'DejaVu Sans'; fill: #20252b">a</tspan>
     <tspan x="168.65625" y="-0.921875" style="font-size: 8px; font-family: 'DejaVu Sans'; fill: #20252b">c</tspan>
     <tspan x="173.054688" y="-0.921875" style="font-size: 8px; font-family: 'DejaVu Sans'; fill: #20252b">e</tspan>
     <tspan x="177.976562" y="-0.921875" style="font-size: 8px; font-family: 'DejaVu Sans'; fill: #20252b">m</tspan>
     <tspan x="185.769531" y="-0.921875" style="font-size: 8px; font-family: 'DejaVu Sans'; fill: #20252b">e</tspan>
     <tspan x="190.691406" y="-0.921875" style="font-size: 8px; font-family: 'DejaVu Sans'; fill: #20252b">n</tspan>
     <tspan x="195.761719" y="-0.921875" style="font-size: 8px; font-family: 'DejaVu Sans'; fill: #20252b">t</tspan>
     <tspan x="198.898438" y="-0.921875" style="font-size: 8px; font-family: 'DejaVu Sans'; fill: #20252b"> </tspan>
     <tspan x="201.441406" y="-0.921875" style="font-size: 8px; font-family: 'DejaVu Sans'; fill: #20252b">c</tspan>
     <tspan x="205.839844" y="-0.921875" style="font-size: 8px; font-family: 'DejaVu Sans'; fill: #20252b">o</tspan>
     <tspan x="210.734375" y="-0.921875" style="font-size: 8px; font-family: 'DejaVu Sans'; fill: #20252b">o</tspan>
     <tspan x="215.628906" y="-0.921875" style="font-size: 8px; font-family: 'DejaVu Sans'; fill: #20252b">r</tspan>
     <tspan x="218.917969" y="-0.921875" style="font-size: 8px; font-family: 'DejaVu Sans'; fill: #20252b">d</tspan>
     <tspan x="223.996094" y="-0.921875" style="font-size: 8px; font-family: 'DejaVu Sans'; fill: #20252b">i</tspan>
     <tspan x="226.21875" y="-0.921875" style="font-size: 8px; font-family: 'DejaVu Sans'; fill: #20252b">n</tspan>
     <tspan x="231.289062" y="-0.921875" style="font-size: 8px; font-family: 'DejaVu Sans'; fill: #20252b">a</tspan>
     <tspan x="236.191406" y="-0.921875" style="font-size: 8px; font-family: 'DejaVu Sans'; fill: #20252b">t</tspan>
     <tspan x="239.328125" y="-0.921875" style="font-size: 8px; font-family: 'DejaVu Sans'; fill: #20252b">e</tspan>
     <tspan x="244.25" y="-0.921875" style="font-size: 8px; font-family: 'DejaVu Sans'; fill: #20252b">s</tspan>
     <tspan x="248.417969" y="-0.921875" style="font-size: 8px; font-family: 'DejaVu Sans'; fill: #20252b"> </tspan>
     <tspan x="252.519531" y="-0.921875" style="font-size: 8px; font-family: 'DejaVu Sans'; fill: #20252b">→</tspan>
     <tspan x="260.78125" y="-0.921875" style="font-size: 8px; font-family: 'DejaVu Sans'; fill: #20252b"> </tspan>
     <tspan x="263.324219" y="-0.921875" style="font-size: 8px; font-family: 'DejaVu Sans'; fill: #20252b">6</tspan>
     <tspan x="268.414062" y="-0.921875" style="font-size: 8px; font-family: 'DejaVu Sans'; fill: #20252b"> </tspan>
     <tspan x="270.957031" y="-0.921875" style="font-size: 8px; font-family: 'DejaVu Sans'; fill: #20252b">m</tspan>
     <tspan x="278.75" y="-0.921875" style="font-size: 8px; font-family: 'DejaVu Sans'; fill: #20252b">i</tspan>
     <tspan x="280.972656" y="-0.921875" style="font-size: 8px; font-family: 'DejaVu Sans'; fill: #20252b">n</tspan>
     <tspan x="286.042969" y="-0.921875" style="font-size: 8px; font-family: 'DejaVu Sans'; fill: #20252b">i</tspan>
     <tspan x="288.265625" y="-0.921875" style="font-size: 8px; font-family: 'DejaVu Sans'; fill: #20252b">m</tspan>
     <tspan x="296.058594" y="-0.921875" style="font-size: 8px; font-family: 'DejaVu Sans'; fill: #20252b">u</tspan>
     <tspan x="301.128906" y="-0.921875" style="font-size: 8px; font-family: 'DejaVu Sans'; fill: #20252b">m</tspan>
     <tspan x="308.921875" y="-0.921875" style="font-size: 8px; font-family: 'DejaVu Sans'; fill: #20252b"> </tspan>
     <tspan x="311.464844" y="-0.921875" style="font-size: 8px; font-family: 'DejaVu Sans'; fill: #20252b">c</tspan>
     <tspan x="315.863281" y="-0.921875" style="font-size: 8px; font-family: 'DejaVu Sans'; fill: #20252b">o</tspan>
     <tspan x="320.757812" y="-0.921875" style="font-size: 8px; font-family: 'DejaVu Sans'; fill: #20252b">o</tspan>
     <tspan x="325.652344" y="-0.921875" style="font-size: 8px; font-family: 'DejaVu Sans'; fill: #20252b">r</tspan>
     <tspan x="328.941406" y="-0.921875" style="font-size: 8px; font-family: 'DejaVu Sans'; fill: #20252b">d</tspan>
     <tspan x="334.019531" y="-0.921875" style="font-size: 8px; font-family: 'DejaVu Sans'; fill: #20252b">i</tspan>
     <tspan x="336.242188" y="-0.921875" style="font-size: 8px; font-family: 'DejaVu Sans'; fill: #20252b">n</tspan>
     <tspan x="341.3125" y="-0.921875" style="font-size: 8px; font-family: 'DejaVu Sans'; fill: #20252b">a</tspan>
     <tspan x="346.214844" y="-0.921875" style="font-size: 8px; font-family: 'DejaVu Sans'; fill: #20252b">t</tspan>
     <tspan x="349.351562" y="-0.921875" style="font-size: 8px; font-family: 'DejaVu Sans'; fill: #20252b">e</tspan>
     <tspan x="354.273438" y="-0.921875" style="font-size: 8px; font-family: 'DejaVu Sans'; fill: #20252b">s</tspan>
     <tspan x="358.441406" y="-0.921875" style="font-size: 8px; font-family: 'DejaVu Sans'; fill: #20252b">;</tspan>
     <tspan x="361.136719" y="-0.921875" style="font-size: 8px; font-family: 'DejaVu Sans'; fill: #20252b"> </tspan>
     <tspan x="363.679688" y="-0.921875" style="font-size: 8px; font-family: 'DejaVu Sans'; fill: #20252b">i</tspan>
     <tspan x="365.902344" y="-0.921875" style="font-size: 8px; font-family: 'DejaVu Sans'; fill: #20252b">n</tspan>
     <tspan x="370.972656" y="-0.921875" style="font-size: 8px; font-family: 'DejaVu Sans'; fill: #20252b">v</tspan>
     <tspan x="375.707031" y="-0.921875" style="font-size: 8px; font-family: 'DejaVu Sans'; fill: #20252b">e</tspan>
     <tspan x="380.628906" y="-0.921875" style="font-size: 8px; font-family: 'DejaVu Sans'; fill: #20252b">r</tspan>
     <tspan x="383.917969" y="-0.921875" style="font-size: 8px; font-family: 'DejaVu Sans'; fill: #20252b">s</tspan>
     <tspan x="388.085938" y="-0.921875" style="font-size: 8px; font-family: 'DejaVu Sans'; fill: #20252b">e</tspan>
     <tspan x="393.007812" y="-0.921875" style="font-size: 8px; font-family: 'DejaVu Sans'; fill: #20252b"> </tspan>
     <tspan x="395.550781" y="-0.921875" style="font-size: 8px; font-family: 'DejaVu Sans'; fill: #20252b">r</tspan>
     <tspan x="398.839844" y="-0.921875" style="font-size: 8px; font-family: 'DejaVu Sans'; fill: #20252b">e</tspan>
     <tspan x="403.761719" y="-0.921875" style="font-size: 8px; font-family: 'DejaVu Sans'; fill: #20252b">g</tspan>
     <tspan x="408.839844" y="-0.921875" style="font-size: 8px; font-family: 'DejaVu Sans'; fill: #20252b">r</tspan>
     <tspan x="412.128906" y="-0.921875" style="font-size: 8px; font-family: 'DejaVu Sans'; fill: #20252b">e</tspan>
     <tspan x="417.050781" y="-0.921875" style="font-size: 8px; font-family: 'DejaVu Sans'; fill: #20252b">s</tspan>
     <tspan x="421.21875" y="-0.921875" style="font-size: 8px; font-family: 'DejaVu Sans'; fill: #20252b">s</tspan>
     <tspan x="425.386719" y="-0.921875" style="font-size: 8px; font-family: 'DejaVu Sans'; fill: #20252b">i</tspan>
     <tspan x="427.609375" y="-0.921875" style="font-size: 8px; font-family: 'DejaVu Sans'; fill: #20252b">o</tspan>
     <tspan x="432.503906" y="-0.921875" style="font-size: 8px; font-family: 'DejaVu Sans'; fill: #20252b">n</tspan>
     <tspan x="437.574219" y="-0.921875" style="font-size: 8px; font-family: 'DejaVu Sans'; fill: #20252b"> </tspan>
     <tspan x="440.117188" y="-0.921875" style="font-size: 8px; font-family: 'DejaVu Sans'; fill: #20252b">r</tspan>
     <tspan x="443.40625" y="-0.921875" style="font-size: 8px; font-family: 'DejaVu Sans'; fill: #20252b">e</tspan>
     <tspan x="448.328125" y="-0.921875" style="font-size: 8px; font-family: 'DejaVu Sans'; fill: #20252b">c</tspan>
     <tspan x="452.726562" y="-0.921875" style="font-size: 8px; font-family: 'DejaVu Sans'; fill: #20252b">o</tspan>
     <tspan x="457.621094" y="-0.921875" style="font-size: 8px; font-family: 'DejaVu Sans'; fill: #20252b">n</tspan>
     <tspan x="462.691406" y="-0.921875" style="font-size: 8px; font-family: 'DejaVu Sans'; fill: #20252b">s</tspan>
     <tspan x="466.859375" y="-0.921875" style="font-size: 8px; font-family: 'DejaVu Sans'; fill: #20252b">t</tspan>
     <tspan x="469.996094" y="-0.921875" style="font-size: 8px; font-family: 'DejaVu Sans'; fill: #20252b">r</tspan>
     <tspan x="473.285156" y="-0.921875" style="font-size: 8px; font-family: 'DejaVu Sans'; fill: #20252b">u</tspan>
     <tspan x="478.355469" y="-0.921875" style="font-size: 8px; font-family: 'DejaVu Sans'; fill: #20252b">c</tspan>
     <tspan x="482.753906" y="-0.921875" style="font-size: 8px; font-family: 'DejaVu Sans'; fill: #20252b">t</tspan>
     <tspan x="485.890625" y="-0.921875" style="font-size: 8px; font-family: 'DejaVu Sans'; fill: #20252b">s</tspan>
     <tspan x="490.058594" y="-0.921875" style="font-size: 8px; font-family: 'DejaVu Sans'; fill: #20252b"> </tspan>
     <tspan x="492.601562" y="-0.921875" style="font-size: 8px; font-family: 'DejaVu Sans'; fill: #20252b">8</tspan>
     <tspan x="497.691406" y="-0.921875" style="font-size: 8px; font-family: 'DejaVu Sans'; fill: #20252b"> </tspan>
     <tspan x="500.234375" y="-0.921875" style="font-size: 8px; font-family: 'DejaVu Sans'; fill: #20252b">c</tspan>
     <tspan x="504.632812" y="-0.921875" style="font-size: 8px; font-family: 'DejaVu Sans'; fill: #20252b">o</tspan>
     <tspan x="509.527344" y="-0.921875" style="font-size: 8px; font-family: 'DejaVu Sans'; fill: #20252b">o</tspan>
     <tspan x="514.421875" y="-0.921875" style="font-size: 8px; font-family: 'DejaVu Sans'; fill: #20252b">r</tspan>
     <tspan x="517.710938" y="-0.921875" style="font-size: 8px; font-family: 'DejaVu Sans'; fill: #20252b">d</tspan>
     <tspan x="522.789062" y="-0.921875" style="font-size: 8px; font-family: 'DejaVu Sans'; fill: #20252b">i</tspan>
     <tspan x="525.011719" y="-0.921875" style="font-size: 8px; font-family: 'DejaVu Sans'; fill: #20252b">n</tspan>
     <tspan x="530.082031" y="-0.921875" style="font-size: 8px; font-family: 'DejaVu Sans'; fill: #20252b">a</tspan>
     <tspan x="534.984375" y="-0.921875" style="font-size: 8px; font-family: 'DejaVu Sans'; fill: #20252b">t</tspan>
     <tspan x="538.121094" y="-0.921875" style="font-size: 8px; font-family: 'DejaVu Sans'; fill: #20252b">e</tspan>
     <tspan x="543.042969" y="-0.921875" style="font-size: 8px; font-family: 'DejaVu Sans'; fill: #20252b">s</tspan>
    </text>
   </g>
  </g>
 </g>
 <defs>
  <clipPath id="p938deaa406">
   <rect x="2.88" y="28.482148" width="135.621818" height="135.621818"/>
  </clipPath>
  <clipPath id="p356530f58f">
   <rect x="184.613236" y="28.482148" width="135.621818" height="135.621818"/>
  </clipPath>
  <clipPath id="p503d99edf7">
   <rect x="366.346473" y="28.482148" width="135.621818" height="135.621818"/>
  </clipPath>
  <clipPath id="pb4329e9092">
   <rect x="548.079709" y="28.482148" width="135.621818" height="135.621818"/>
  </clipPath>
  <clipPath id="p0d802d8ea8">
   <rect x="729.812945" y="28.482148" width="135.621818" height="135.621818"/>
  </clipPath>
  <clipPath id="pc9ccb6f72d">
   <rect x="911.546182" y="28.482148" width="135.621818" height="135.621818"/>
  </clipPath>
 </defs>
</svg>
